<mxfile host="app.diagrams.net" modified="2020-10-05T08:53:39.091Z" agent="5.0 (Macintosh; Intel Mac OS X 10_15_4) AppleWebKit/537.36 (KHTML, like Gecko) Chrome/85.0.4183.83 Safari/537.36" etag="ReycTT5l_3AwCjNjM1Dk" version="13.7.7" type="github">
  <diagram id="H3dyZMWb0Ev_Wrh2e_3i" name="Page-1">
    <mxGraphModel dx="1577" dy="1023" grid="1" gridSize="10" guides="1" tooltips="1" connect="1" arrows="1" fold="1" page="1" pageScale="1" pageWidth="827" pageHeight="1169" math="0" shadow="0">
      <root>
        <mxCell id="0" />
        <mxCell id="1" parent="0" />
        <mxCell id="9NFHFE5VKS4REKrybLd1-11" value="" style="strokeWidth=1;shadow=0;dashed=0;align=center;html=1;shape=mxgraph.mockup.containers.browserWindow;rSize=0;strokeColor=#666666;strokeColor2=#008cff;strokeColor3=#c4c4c4;mainText=,;recursiveResize=0;" parent="1" vertex="1">
          <mxGeometry x="67" y="145" width="753" height="545" as="geometry" />
        </mxCell>
        <mxCell id="9NFHFE5VKS4REKrybLd1-12" value="Page 1" style="strokeWidth=1;shadow=0;dashed=0;align=center;html=1;shape=mxgraph.mockup.containers.anchor;fontSize=17;fontColor=#666666;align=left;" parent="9NFHFE5VKS4REKrybLd1-11" vertex="1">
          <mxGeometry x="60" y="12" width="110" height="26" as="geometry" />
        </mxCell>
        <mxCell id="9NFHFE5VKS4REKrybLd1-13" value="https://www.draw.io" style="strokeWidth=1;shadow=0;dashed=0;align=center;html=1;shape=mxgraph.mockup.containers.anchor;rSize=0;fontSize=17;fontColor=#666666;align=left;" parent="9NFHFE5VKS4REKrybLd1-11" vertex="1">
          <mxGeometry x="130" y="60" width="250" height="26" as="geometry" />
        </mxCell>
        <mxCell id="9NFHFE5VKS4REKrybLd1-19" value="&lt;h1&gt;How was your day?&lt;/h1&gt;" style="strokeWidth=1;shadow=0;dashed=0;align=center;html=1;shape=mxgraph.mockup.text.alphanumeric;linkText=;html=1;fontStyle=0;fontSize=17;strokeColor=none;fillColor=none;" parent="9NFHFE5VKS4REKrybLd1-11" vertex="1">
          <mxGeometry x="155" y="215" width="450" height="50" as="geometry" />
        </mxCell>
        <mxCell id="9NFHFE5VKS4REKrybLd1-22" value="" style="verticalLabelPosition=bottom;verticalAlign=top;html=1;shape=mxgraph.basic.star;shadow=0;dashed=0;strokeWidth=1;fillColor=none;fontSize=17;" parent="9NFHFE5VKS4REKrybLd1-11" vertex="1">
          <mxGeometry x="153" y="295" width="70" height="55" as="geometry" />
        </mxCell>
        <mxCell id="9NFHFE5VKS4REKrybLd1-23" value="" style="verticalLabelPosition=bottom;verticalAlign=top;html=1;shape=mxgraph.basic.star;shadow=0;dashed=0;strokeWidth=1;fillColor=none;fontSize=17;" parent="9NFHFE5VKS4REKrybLd1-11" vertex="1">
          <mxGeometry x="250" y="295" width="70" height="55" as="geometry" />
        </mxCell>
        <mxCell id="9NFHFE5VKS4REKrybLd1-25" value="" style="verticalLabelPosition=bottom;verticalAlign=top;html=1;shape=mxgraph.basic.star;shadow=0;dashed=0;strokeWidth=1;fillColor=none;fontSize=17;" parent="9NFHFE5VKS4REKrybLd1-11" vertex="1">
          <mxGeometry x="350" y="295" width="70" height="55" as="geometry" />
        </mxCell>
        <mxCell id="9NFHFE5VKS4REKrybLd1-27" value="" style="verticalLabelPosition=bottom;verticalAlign=top;html=1;shape=mxgraph.basic.star;shadow=0;dashed=0;strokeWidth=1;fillColor=none;fontSize=17;" parent="9NFHFE5VKS4REKrybLd1-11" vertex="1">
          <mxGeometry x="440" y="295" width="70" height="55" as="geometry" />
        </mxCell>
        <mxCell id="9NFHFE5VKS4REKrybLd1-29" value="" style="verticalLabelPosition=bottom;verticalAlign=top;html=1;shape=mxgraph.basic.star;shadow=0;dashed=0;strokeWidth=1;fillColor=none;fontSize=17;" parent="9NFHFE5VKS4REKrybLd1-11" vertex="1">
          <mxGeometry x="530" y="295" width="70" height="55" as="geometry" />
        </mxCell>
        <mxCell id="9NFHFE5VKS4REKrybLd1-31" value="" style="strokeWidth=1;shadow=0;dashed=0;align=center;html=1;shape=mxgraph.mockup.containers.browserWindow;rSize=0;strokeColor=#666666;strokeColor2=#008cff;strokeColor3=#c4c4c4;mainText=,;recursiveResize=0;" parent="1" vertex="1">
          <mxGeometry x="67" y="770" width="760" height="560" as="geometry" />
        </mxCell>
        <mxCell id="9NFHFE5VKS4REKrybLd1-32" value="Page 1" style="strokeWidth=1;shadow=0;dashed=0;align=center;html=1;shape=mxgraph.mockup.containers.anchor;fontSize=17;fontColor=#666666;align=left;" parent="9NFHFE5VKS4REKrybLd1-31" vertex="1">
          <mxGeometry x="60" y="12" width="110" height="26" as="geometry" />
        </mxCell>
        <mxCell id="9NFHFE5VKS4REKrybLd1-33" value="https://www.draw.io" style="strokeWidth=1;shadow=0;dashed=0;align=center;html=1;shape=mxgraph.mockup.containers.anchor;rSize=0;fontSize=17;fontColor=#666666;align=left;" parent="9NFHFE5VKS4REKrybLd1-31" vertex="1">
          <mxGeometry x="130" y="60" width="250" height="26" as="geometry" />
        </mxCell>
        <mxCell id="9NFHFE5VKS4REKrybLd1-34" value="&lt;h1&gt;How was your day?&lt;/h1&gt;" style="strokeWidth=1;shadow=0;dashed=0;align=center;html=1;shape=mxgraph.mockup.text.alphanumeric;linkText=;html=1;fontStyle=0;fontSize=17;strokeColor=none;fillColor=none;" parent="9NFHFE5VKS4REKrybLd1-31" vertex="1">
          <mxGeometry x="155" y="215" width="450" height="50" as="geometry" />
        </mxCell>
        <mxCell id="9NFHFE5VKS4REKrybLd1-35" value="" style="verticalLabelPosition=bottom;verticalAlign=top;html=1;shape=mxgraph.basic.star;shadow=0;dashed=0;strokeWidth=1;fillColor=#CCCCCC;fontSize=17;" parent="9NFHFE5VKS4REKrybLd1-31" vertex="1">
          <mxGeometry x="153" y="295" width="70" height="55" as="geometry" />
        </mxCell>
        <mxCell id="9NFHFE5VKS4REKrybLd1-36" value="" style="verticalLabelPosition=bottom;verticalAlign=top;html=1;shape=mxgraph.basic.star;shadow=0;dashed=0;strokeWidth=1;fillColor=#CCCCCC;fontSize=17;" parent="9NFHFE5VKS4REKrybLd1-31" vertex="1">
          <mxGeometry x="250" y="295" width="70" height="55" as="geometry" />
        </mxCell>
        <mxCell id="9NFHFE5VKS4REKrybLd1-37" value="" style="verticalLabelPosition=bottom;verticalAlign=top;html=1;shape=mxgraph.basic.star;shadow=0;dashed=0;strokeWidth=1;fillColor=#CCCCCC;fontSize=17;" parent="9NFHFE5VKS4REKrybLd1-31" vertex="1">
          <mxGeometry x="350" y="295" width="70" height="55" as="geometry" />
        </mxCell>
        <mxCell id="9NFHFE5VKS4REKrybLd1-38" value="" style="verticalLabelPosition=bottom;verticalAlign=top;html=1;shape=mxgraph.basic.star;shadow=0;dashed=0;strokeWidth=1;fillColor=none;fontSize=17;" parent="9NFHFE5VKS4REKrybLd1-31" vertex="1">
          <mxGeometry x="440" y="295" width="70" height="55" as="geometry" />
        </mxCell>
        <mxCell id="9NFHFE5VKS4REKrybLd1-39" value="" style="verticalLabelPosition=bottom;verticalAlign=top;html=1;shape=mxgraph.basic.star;shadow=0;dashed=0;strokeWidth=1;fillColor=none;fontSize=17;" parent="9NFHFE5VKS4REKrybLd1-31" vertex="1">
          <mxGeometry x="530" y="295" width="70" height="55" as="geometry" />
        </mxCell>
        <mxCell id="9NFHFE5VKS4REKrybLd1-43" value="&lt;h4&gt;acceptable&lt;/h4&gt;" style="text;html=1;resizable=0;autosize=1;align=center;verticalAlign=middle;points=[];fillColor=none;strokeColor=none;rounded=0;shadow=0;dashed=0;fontSize=17;" parent="9NFHFE5VKS4REKrybLd1-31" vertex="1">
          <mxGeometry x="335" y="340" width="100" height="70" as="geometry" />
        </mxCell>
        <mxCell id="9NFHFE5VKS4REKrybLd1-44" value="&lt;h4&gt;pleasant&lt;/h4&gt;" style="text;html=1;resizable=0;autosize=1;align=center;verticalAlign=middle;points=[];fillColor=none;strokeColor=none;rounded=0;shadow=0;dashed=0;fontSize=17;" parent="9NFHFE5VKS4REKrybLd1-31" vertex="1">
          <mxGeometry x="435" y="340" width="80" height="70" as="geometry" />
        </mxCell>
        <mxCell id="9NFHFE5VKS4REKrybLd1-45" value="&lt;h4&gt;&lt;b style=&quot;color: rgb(34 , 34 , 34) ; font-family: &amp;#34;arial&amp;#34; , sans-serif ; text-align: left ; background-color: rgb(255 , 255 , 255)&quot;&gt;&lt;b&gt;&lt;font style=&quot;font-size: 17px&quot;&gt;amazing&lt;/font&gt;&lt;/b&gt;&lt;/b&gt;&lt;br&gt;&lt;/h4&gt;" style="text;html=1;resizable=0;autosize=1;align=center;verticalAlign=middle;points=[];fillColor=none;strokeColor=none;rounded=0;shadow=0;dashed=0;fontSize=17;" parent="9NFHFE5VKS4REKrybLd1-31" vertex="1">
          <mxGeometry x="530" y="340" width="80" height="70" as="geometry" />
        </mxCell>
        <mxCell id="9NFHFE5VKS4REKrybLd1-46" value="&lt;h4&gt;challenging&lt;/h4&gt;" style="text;html=1;resizable=0;autosize=1;align=center;verticalAlign=middle;points=[];fillColor=none;strokeColor=none;rounded=0;shadow=0;dashed=0;fontSize=17;" parent="9NFHFE5VKS4REKrybLd1-31" vertex="1">
          <mxGeometry x="230" y="340" width="110" height="70" as="geometry" />
        </mxCell>
        <mxCell id="9NFHFE5VKS4REKrybLd1-61" value="&lt;h4&gt;tough&lt;/h4&gt;" style="text;html=1;resizable=0;autosize=1;align=center;verticalAlign=middle;points=[];fillColor=none;strokeColor=none;rounded=0;shadow=0;dashed=0;fontSize=17;" parent="9NFHFE5VKS4REKrybLd1-31" vertex="1">
          <mxGeometry x="155" y="340" width="60" height="70" as="geometry" />
        </mxCell>
        <mxCell id="PMnQvKvV0bI0PWe8ptfF-861" value="" style="group" parent="9NFHFE5VKS4REKrybLd1-31" vertex="1" connectable="0">
          <mxGeometry y="110" width="760" height="40" as="geometry" />
        </mxCell>
        <mxCell id="PMnQvKvV0bI0PWe8ptfF-862" value="START" style="fontSize=14;shadow=0;dashed=1;dashPattern=1 1;sketch=0;align=center;rounded=1;fontStyle=1;fillColor=#E6E6E6;" parent="PMnQvKvV0bI0PWe8ptfF-861" vertex="1">
          <mxGeometry x="10" y="10" width="80" height="30" as="geometry" />
        </mxCell>
        <mxCell id="PMnQvKvV0bI0PWe8ptfF-863" value="QUIZ" style="fillColor=none;fontSize=14;shadow=0;dashed=1;dashPattern=1 1;sketch=0;align=center;rounded=1;" parent="PMnQvKvV0bI0PWe8ptfF-861" vertex="1">
          <mxGeometry x="90" y="10" width="60" height="30" as="geometry" />
        </mxCell>
        <mxCell id="PMnQvKvV0bI0PWe8ptfF-864" value="DAY " style="strokeColor=#666666;fontSize=14;shadow=0;dashed=1;dashPattern=1 1;sketch=0;align=center;fontStyle=0;fontColor=#333333;rounded=1;fillColor=none;" parent="PMnQvKvV0bI0PWe8ptfF-861" vertex="1">
          <mxGeometry x="150" y="10" width="60" height="30" as="geometry" />
        </mxCell>
        <mxCell id="PMnQvKvV0bI0PWe8ptfF-865" value="ALL DATA" style="fontSize=14;shadow=0;dashed=1;dashPattern=1 1;sketch=0;align=center;rounded=1;fontStyle=0;fillColor=none;" parent="PMnQvKvV0bI0PWe8ptfF-861" vertex="1">
          <mxGeometry x="210" y="10" width="80" height="30" as="geometry" />
        </mxCell>
        <mxCell id="PMnQvKvV0bI0PWe8ptfF-866" value="" style="rounded=0;whiteSpace=wrap;html=1;shadow=0;dashed=1;dashPattern=1 1;sketch=0;strokeColor=#000000;fillColor=none;gradientColor=#ffffff;fontSize=12;align=center;" parent="PMnQvKvV0bI0PWe8ptfF-861" vertex="1">
          <mxGeometry width="760" height="40" as="geometry" />
        </mxCell>
        <mxCell id="9NFHFE5VKS4REKrybLd1-62" value="" style="strokeWidth=1;shadow=0;dashed=0;align=center;html=1;shape=mxgraph.mockup.containers.browserWindow;rSize=0;strokeColor=#666666;strokeColor2=#008cff;strokeColor3=#c4c4c4;mainText=,;recursiveResize=0;" parent="1" vertex="1">
          <mxGeometry x="920" y="770" width="810" height="560" as="geometry" />
        </mxCell>
        <mxCell id="9NFHFE5VKS4REKrybLd1-63" value="Page 1" style="strokeWidth=1;shadow=0;dashed=0;align=center;html=1;shape=mxgraph.mockup.containers.anchor;fontSize=17;fontColor=#666666;align=left;" parent="9NFHFE5VKS4REKrybLd1-62" vertex="1">
          <mxGeometry x="60" y="12" width="110" height="26" as="geometry" />
        </mxCell>
        <mxCell id="9NFHFE5VKS4REKrybLd1-64" value="https://www.draw.io" style="strokeWidth=1;shadow=0;dashed=0;align=center;html=1;shape=mxgraph.mockup.containers.anchor;rSize=0;fontSize=17;fontColor=#666666;align=left;" parent="9NFHFE5VKS4REKrybLd1-62" vertex="1">
          <mxGeometry x="130" y="60" width="250" height="26" as="geometry" />
        </mxCell>
        <mxCell id="9NFHFE5VKS4REKrybLd1-168" value="&lt;h2&gt;Have you sleept well?&lt;/h2&gt;" style="strokeWidth=1;shadow=0;dashed=0;align=left;html=1;shape=mxgraph.mockup.text.alphanumeric;linkText=;html=1;fontStyle=0;fontSize=17;strokeColor=none;fillColor=none;verticalAlign=middle;spacingTop=0;" parent="9NFHFE5VKS4REKrybLd1-62" vertex="1">
          <mxGeometry x="60" y="180" width="450" height="50" as="geometry" />
        </mxCell>
        <mxCell id="9NFHFE5VKS4REKrybLd1-171" value="&lt;h2 style=&quot;font-size: 17px;&quot;&gt;No&lt;/h2&gt;" style="html=1;shadow=0;dashed=0;shape=mxgraph.bootstrap.rrect;rSize=5;strokeColor=#343A40;strokeWidth=1;fillColor=none;fontColor=#343A40;whiteSpace=wrap;align=center;verticalAlign=middle;spacingLeft=0;fontStyle=0;fontSize=17;spacing=5;" parent="9NFHFE5VKS4REKrybLd1-62" vertex="1">
          <mxGeometry x="650" y="180" width="80" height="40" as="geometry" />
        </mxCell>
        <mxCell id="9NFHFE5VKS4REKrybLd1-169" value="&lt;h2 style=&quot;font-size: 17px;&quot;&gt;Yes&lt;/h2&gt;" style="html=1;shadow=0;dashed=0;shape=mxgraph.bootstrap.rrect;rSize=5;strokeColor=#343A40;strokeWidth=1;fillColor=none;fontColor=#343A40;whiteSpace=wrap;align=center;verticalAlign=middle;spacingLeft=0;fontStyle=0;fontSize=17;spacing=5;" parent="9NFHFE5VKS4REKrybLd1-62" vertex="1">
          <mxGeometry x="510" y="180" width="80" height="40" as="geometry" />
        </mxCell>
        <mxCell id="9NFHFE5VKS4REKrybLd1-191" value="&lt;h2&gt;How long have you slept?&lt;/h2&gt;" style="strokeWidth=1;shadow=0;dashed=0;align=left;html=1;shape=mxgraph.mockup.text.alphanumeric;linkText=;html=1;fontStyle=0;fontSize=17;strokeColor=none;fillColor=none;verticalAlign=middle;spacingTop=0;" parent="9NFHFE5VKS4REKrybLd1-62" vertex="1">
          <mxGeometry x="60" y="255" width="450" height="50" as="geometry" />
        </mxCell>
        <mxCell id="9NFHFE5VKS4REKrybLd1-192" value="&lt;h2&gt;&lt;br&gt;&lt;/h2&gt;" style="strokeWidth=1;shadow=0;dashed=0;align=left;html=1;shape=mxgraph.mockup.text.alphanumeric;linkText=;html=1;fontStyle=0;fontSize=17;strokeColor=none;fillColor=none;verticalAlign=middle;spacingTop=0;" parent="9NFHFE5VKS4REKrybLd1-62" vertex="1">
          <mxGeometry x="80" y="330" width="450" height="50" as="geometry" />
        </mxCell>
        <mxCell id="9NFHFE5VKS4REKrybLd1-195" value="&lt;h2 style=&quot;font-size: 17px&quot;&gt;&lt;font color=&quot;#cccccc&quot;&gt;Till&lt;/font&gt;&lt;/h2&gt;" style="html=1;shadow=0;dashed=0;shape=mxgraph.bootstrap.rrect;rSize=5;strokeColor=#343A40;strokeWidth=1;fillColor=none;fontColor=#343A40;whiteSpace=wrap;align=center;verticalAlign=middle;spacingLeft=0;fontStyle=0;fontSize=17;spacing=5;" parent="9NFHFE5VKS4REKrybLd1-62" vertex="1">
          <mxGeometry x="650" y="260" width="80" height="40" as="geometry" />
        </mxCell>
        <mxCell id="9NFHFE5VKS4REKrybLd1-196" value="&lt;h2 style=&quot;font-size: 17px&quot;&gt;&lt;font color=&quot;#cccccc&quot;&gt;From&lt;/font&gt;&lt;/h2&gt;" style="html=1;shadow=0;dashed=0;shape=mxgraph.bootstrap.rrect;rSize=5;strokeColor=#343A40;strokeWidth=1;fillColor=none;fontColor=#343A40;whiteSpace=wrap;align=center;verticalAlign=middle;spacingLeft=0;fontStyle=0;fontSize=17;spacing=5;" parent="9NFHFE5VKS4REKrybLd1-62" vertex="1">
          <mxGeometry x="510" y="260" width="80" height="40" as="geometry" />
        </mxCell>
        <mxCell id="9NFHFE5VKS4REKrybLd1-212" value="&lt;h2&gt;Have you wake up in the night?&lt;/h2&gt;" style="strokeWidth=1;shadow=0;dashed=0;align=left;html=1;shape=mxgraph.mockup.text.alphanumeric;linkText=;html=1;fontStyle=0;fontSize=17;strokeColor=none;fillColor=none;verticalAlign=middle;spacingTop=0;" parent="9NFHFE5VKS4REKrybLd1-62" vertex="1">
          <mxGeometry x="60" y="320" width="450" height="50" as="geometry" />
        </mxCell>
        <mxCell id="9NFHFE5VKS4REKrybLd1-207" value="&lt;h2 style=&quot;font-size: 17px;&quot;&gt;Yes&lt;/h2&gt;" style="html=1;shadow=0;dashed=0;shape=mxgraph.bootstrap.rrect;rSize=5;strokeColor=#343A40;strokeWidth=1;fillColor=none;fontColor=#343A40;whiteSpace=wrap;align=center;verticalAlign=middle;spacingLeft=0;fontStyle=0;fontSize=17;spacing=5;" parent="9NFHFE5VKS4REKrybLd1-62" vertex="1">
          <mxGeometry x="510" y="330" width="80" height="40" as="geometry" />
        </mxCell>
        <mxCell id="9NFHFE5VKS4REKrybLd1-206" value="&lt;h2 style=&quot;font-size: 17px;&quot;&gt;No&lt;/h2&gt;" style="html=1;shadow=0;dashed=0;shape=mxgraph.bootstrap.rrect;rSize=5;strokeColor=#343A40;strokeWidth=1;fillColor=none;fontColor=#343A40;whiteSpace=wrap;align=center;verticalAlign=middle;spacingLeft=0;fontStyle=0;fontSize=17;spacing=5;" parent="9NFHFE5VKS4REKrybLd1-62" vertex="1">
          <mxGeometry x="650" y="330" width="80" height="40" as="geometry" />
        </mxCell>
        <mxCell id="9NFHFE5VKS4REKrybLd1-213" value="&lt;h2&gt;Snoozing in the morning?&lt;/h2&gt;" style="strokeWidth=1;shadow=0;dashed=0;align=left;html=1;shape=mxgraph.mockup.text.alphanumeric;linkText=;html=1;fontStyle=0;fontSize=17;strokeColor=none;fillColor=none;verticalAlign=middle;spacingTop=0;" parent="9NFHFE5VKS4REKrybLd1-62" vertex="1">
          <mxGeometry x="60" y="390" width="450" height="50" as="geometry" />
        </mxCell>
        <mxCell id="9NFHFE5VKS4REKrybLd1-214" value="&lt;h2 style=&quot;font-size: 17px;&quot;&gt;No&lt;/h2&gt;" style="html=1;shadow=0;dashed=0;shape=mxgraph.bootstrap.rrect;rSize=5;strokeColor=#343A40;strokeWidth=1;fillColor=none;fontColor=#343A40;whiteSpace=wrap;align=center;verticalAlign=middle;spacingLeft=0;fontStyle=0;fontSize=17;spacing=5;" parent="9NFHFE5VKS4REKrybLd1-62" vertex="1">
          <mxGeometry x="650" y="400" width="80" height="40" as="geometry" />
        </mxCell>
        <mxCell id="9NFHFE5VKS4REKrybLd1-215" value="&lt;h2 style=&quot;font-size: 17px;&quot;&gt;Yes&lt;/h2&gt;" style="html=1;shadow=0;dashed=0;shape=mxgraph.bootstrap.rrect;rSize=5;strokeColor=#343A40;strokeWidth=1;fillColor=none;fontColor=#343A40;whiteSpace=wrap;align=center;verticalAlign=middle;spacingLeft=0;fontStyle=0;fontSize=17;spacing=5;" parent="9NFHFE5VKS4REKrybLd1-62" vertex="1">
          <mxGeometry x="510" y="400" width="80" height="40" as="geometry" />
        </mxCell>
        <mxCell id="9NFHFE5VKS4REKrybLd1-205" value="&lt;h2&gt;Or naps during the day?&lt;/h2&gt;" style="strokeWidth=1;shadow=0;dashed=0;align=left;html=1;shape=mxgraph.mockup.text.alphanumeric;linkText=;html=1;fontStyle=0;fontSize=17;strokeColor=none;fillColor=none;verticalAlign=middle;spacingTop=0;" parent="9NFHFE5VKS4REKrybLd1-62" vertex="1">
          <mxGeometry x="60" y="450" width="426" height="50" as="geometry" />
        </mxCell>
        <mxCell id="9NFHFE5VKS4REKrybLd1-211" value="&lt;h2 style=&quot;font-size: 17px&quot;&gt;Yes&lt;/h2&gt;" style="html=1;shadow=0;dashed=0;shape=mxgraph.bootstrap.rrect;rSize=5;strokeColor=#343A40;strokeWidth=1;fillColor=none;fontColor=#343A40;whiteSpace=wrap;align=center;verticalAlign=middle;spacingLeft=0;fontStyle=0;fontSize=17;spacing=5;" parent="9NFHFE5VKS4REKrybLd1-62" vertex="1">
          <mxGeometry x="510" y="460" width="80" height="40" as="geometry" />
        </mxCell>
        <mxCell id="9NFHFE5VKS4REKrybLd1-210" value="&lt;h2 style=&quot;font-size: 17px&quot;&gt;No&lt;/h2&gt;" style="html=1;shadow=0;dashed=0;shape=mxgraph.bootstrap.rrect;rSize=5;strokeColor=#343A40;strokeWidth=1;fillColor=none;fontColor=#343A40;whiteSpace=wrap;align=center;verticalAlign=middle;spacingLeft=0;fontStyle=0;fontSize=17;spacing=5;" parent="9NFHFE5VKS4REKrybLd1-62" vertex="1">
          <mxGeometry x="650" y="460" width="80" height="40" as="geometry" />
        </mxCell>
        <mxCell id="9NFHFE5VKS4REKrybLd1-308" value="" style="html=1;shadow=0;dashed=0;shape=mxgraph.bootstrap.rrect;rSize=5;html=1;whiteSpace=wrap;fillColor=#ffffff;align=center;strokeColor=#CCCCCC;" parent="9NFHFE5VKS4REKrybLd1-62" vertex="1">
          <mxGeometry x="67.5" y="520" width="675" height="25" as="geometry" />
        </mxCell>
        <mxCell id="9NFHFE5VKS4REKrybLd1-309" value="Sleep" style="strokeColor=inherit;gradientColor=inherit;html=1;shadow=0;dashed=0;shape=mxgraph.bootstrap.leftButton;rSize=5;perimeter=none;whiteSpace=wrap;resizeHeight=1;fillColor=#CCCCCC;strokeColor=none;fontColor=#ffffff;fontSize=12;" parent="9NFHFE5VKS4REKrybLd1-308" vertex="1">
          <mxGeometry width="230" height="25" relative="1" as="geometry" />
        </mxCell>
        <mxCell id="9NFHFE5VKS4REKrybLd1-310" value="&lt;span style=&quot;background-color: rgb(255 , 255 , 255)&quot;&gt;Nutrition&lt;/span&gt;" style="strokeColor=inherit;fillColor=inherit;gradientColor=inherit;fontColor=inherit;html=1;shadow=0;dashed=0;perimeter=none;whiteSpace=wrap;resizeHeight=1;fontSize=12;" parent="9NFHFE5VKS4REKrybLd1-308" vertex="1">
          <mxGeometry width="160" height="25" relative="1" as="geometry">
            <mxPoint x="225" as="offset" />
          </mxGeometry>
        </mxCell>
        <mxCell id="9NFHFE5VKS4REKrybLd1-311" value="&lt;font color=&quot;#009900&quot;&gt;&lt;b&gt;Submit&lt;/b&gt;&lt;/font&gt;" style="strokeColor=inherit;fillColor=inherit;gradientColor=inherit;fontColor=inherit;html=1;shadow=0;dashed=0;shape=mxgraph.bootstrap.rightButton;rSize=5;perimeter=none;whiteSpace=wrap;resizeHeight=1;fontSize=12;" parent="9NFHFE5VKS4REKrybLd1-308" vertex="1">
          <mxGeometry x="1" width="139" height="25" relative="1" as="geometry">
            <mxPoint x="-132.5" as="offset" />
          </mxGeometry>
        </mxCell>
        <mxCell id="PMnQvKvV0bI0PWe8ptfF-22" value="&lt;span style=&quot;background-color: rgb(255 , 255 , 255)&quot;&gt;Activities&lt;/span&gt;" style="strokeColor=inherit;fillColor=inherit;gradientColor=inherit;fontColor=inherit;html=1;shadow=0;dashed=0;perimeter=none;whiteSpace=wrap;resizeHeight=1;fontSize=12;" parent="9NFHFE5VKS4REKrybLd1-308" vertex="1">
          <mxGeometry x="382.5" width="160" height="25" as="geometry" />
        </mxCell>
        <mxCell id="PMnQvKvV0bI0PWe8ptfF-844" value="" style="group" parent="9NFHFE5VKS4REKrybLd1-62" vertex="1" connectable="0">
          <mxGeometry y="110" width="810" height="40" as="geometry" />
        </mxCell>
        <mxCell id="PMnQvKvV0bI0PWe8ptfF-802" value="" style="rounded=0;whiteSpace=wrap;html=1;shadow=0;dashed=1;dashPattern=1 1;sketch=0;strokeColor=#000000;fillColor=none;gradientColor=#ffffff;fontSize=12;align=center;" parent="PMnQvKvV0bI0PWe8ptfF-844" vertex="1">
          <mxGeometry width="810" height="40" as="geometry" />
        </mxCell>
        <mxCell id="PMnQvKvV0bI0PWe8ptfF-833" value="START" style="fillColor=none;fontSize=14;shadow=0;dashed=1;dashPattern=1 1;sketch=0;align=center;rounded=1;" parent="PMnQvKvV0bI0PWe8ptfF-844" vertex="1">
          <mxGeometry x="10" y="10" width="80" height="30" as="geometry" />
        </mxCell>
        <mxCell id="PMnQvKvV0bI0PWe8ptfF-834" value="QUIZ" style="fontSize=14;shadow=0;dashed=1;dashPattern=1 1;sketch=0;align=center;rounded=1;fontStyle=1;labelBackgroundColor=none;fillColor=#E6E6E6;" parent="PMnQvKvV0bI0PWe8ptfF-844" vertex="1">
          <mxGeometry x="90" y="10" width="60" height="30" as="geometry" />
        </mxCell>
        <mxCell id="PMnQvKvV0bI0PWe8ptfF-835" value="DAY " style="strokeColor=#666666;fontSize=14;shadow=0;dashed=1;dashPattern=1 1;sketch=0;align=center;fontStyle=0;fontColor=#333333;rounded=1;fillColor=none;" parent="PMnQvKvV0bI0PWe8ptfF-844" vertex="1">
          <mxGeometry x="150" y="10" width="60" height="30" as="geometry" />
        </mxCell>
        <mxCell id="PMnQvKvV0bI0PWe8ptfF-836" value="ALL DATA" style="fontSize=14;shadow=0;dashed=1;dashPattern=1 1;sketch=0;align=center;rounded=1;fontStyle=0;fillColor=none;" parent="PMnQvKvV0bI0PWe8ptfF-844" vertex="1">
          <mxGeometry x="210" y="10" width="80" height="30" as="geometry" />
        </mxCell>
        <mxCell id="9NFHFE5VKS4REKrybLd1-216" value="&lt;span style=&quot;font-family: monospace; font-size: 0px;&quot;&gt;%3CmxGraphModel%3E%3Croot%3E%3CmxCell%20id%3D%220%22%2F%3E%3CmxCell%20id%3D%221%22%20parent%3D%220%22%2F%3E%3CmxCell%20id%3D%222%22%20value%3D%22%26lt%3Bh1%26gt%3BHow%20was%20your%20day%3F%26lt%3B%2Fh1%26gt%3B%22%20style%3D%22strokeWidth%3D1%3Bshadow%3D0%3Bdashed%3D0%3Balign%3Dcenter%3Bhtml%3D1%3Bshape%3Dmxgraph.mockup.text.alphanumeric%3BlinkText%3D%3Bhtml%3D1%3BfontStyle%3D0%3BfontSize%3D17%3BstrokeColor%3Dnone%3BfillColor%3Dnone%3B%22%20vertex%3D%221%22%20parent%3D%221%22%3E%3CmxGeometry%20x%3D%22222%22%20y%3D%22985%22%20width%3D%22450%22%20height%3D%2250%22%20as%3D%22geometry%22%2F%3E%3C%2FmxCell%3E%3C%2Froot%3E%3C%2FmxGraphModel%3E&lt;/span&gt;" style="strokeWidth=1;shadow=0;dashed=0;align=center;html=1;shape=mxgraph.mockup.containers.browserWindow;rSize=0;strokeColor=#666666;strokeColor2=#008cff;strokeColor3=#c4c4c4;mainText=,;recursiveResize=0;fillColor=#FFFFFF;" parent="1" vertex="1">
          <mxGeometry x="1800" y="770" width="810" height="560" as="geometry" />
        </mxCell>
        <mxCell id="9NFHFE5VKS4REKrybLd1-217" value="Page 1" style="strokeWidth=1;shadow=0;dashed=0;align=center;html=1;shape=mxgraph.mockup.containers.anchor;fontSize=17;fontColor=#666666;align=left;" parent="9NFHFE5VKS4REKrybLd1-216" vertex="1">
          <mxGeometry x="60" y="12" width="110" height="26" as="geometry" />
        </mxCell>
        <mxCell id="9NFHFE5VKS4REKrybLd1-218" value="https://www.draw.io" style="strokeWidth=1;shadow=0;dashed=0;align=center;html=1;shape=mxgraph.mockup.containers.anchor;rSize=0;fontSize=17;fontColor=#666666;align=left;" parent="9NFHFE5VKS4REKrybLd1-216" vertex="1">
          <mxGeometry x="130" y="60" width="250" height="26" as="geometry" />
        </mxCell>
        <mxCell id="9NFHFE5VKS4REKrybLd1-219" value="&lt;h2&gt;Have you eaten regularelly?&lt;/h2&gt;" style="strokeWidth=1;shadow=0;dashed=0;align=left;html=1;shape=mxgraph.mockup.text.alphanumeric;linkText=;html=1;fontStyle=0;fontSize=17;strokeColor=none;fillColor=none;verticalAlign=middle;spacingTop=0;" parent="9NFHFE5VKS4REKrybLd1-216" vertex="1">
          <mxGeometry x="70" y="200" width="450" height="50" as="geometry" />
        </mxCell>
        <mxCell id="9NFHFE5VKS4REKrybLd1-220" value="&lt;h2 style=&quot;font-size: 17px;&quot;&gt;No&lt;/h2&gt;" style="html=1;shadow=0;dashed=0;shape=mxgraph.bootstrap.rrect;rSize=5;strokeColor=#343A40;strokeWidth=1;fillColor=none;fontColor=#343A40;whiteSpace=wrap;align=center;verticalAlign=middle;spacingLeft=0;fontStyle=0;fontSize=17;spacing=5;" parent="9NFHFE5VKS4REKrybLd1-216" vertex="1">
          <mxGeometry x="660" y="200" width="80" height="40" as="geometry" />
        </mxCell>
        <mxCell id="9NFHFE5VKS4REKrybLd1-221" value="&lt;h2 style=&quot;font-size: 17px;&quot;&gt;Yes&lt;/h2&gt;" style="html=1;shadow=0;dashed=0;shape=mxgraph.bootstrap.rrect;rSize=5;strokeColor=#343A40;strokeWidth=1;fillColor=none;fontColor=#343A40;whiteSpace=wrap;align=center;verticalAlign=middle;spacingLeft=0;fontStyle=0;fontSize=17;spacing=5;" parent="9NFHFE5VKS4REKrybLd1-216" vertex="1">
          <mxGeometry x="520" y="200" width="80" height="40" as="geometry" />
        </mxCell>
        <mxCell id="9NFHFE5VKS4REKrybLd1-222" value="&lt;h2&gt;Skipped meal?&lt;/h2&gt;" style="strokeWidth=1;shadow=0;dashed=0;align=left;html=1;shape=mxgraph.mockup.text.alphanumeric;linkText=;html=1;fontStyle=0;fontSize=17;strokeColor=none;fillColor=none;verticalAlign=middle;spacingTop=0;" parent="9NFHFE5VKS4REKrybLd1-216" vertex="1">
          <mxGeometry x="70" y="275" width="450" height="50" as="geometry" />
        </mxCell>
        <mxCell id="9NFHFE5VKS4REKrybLd1-223" value="&lt;h2&gt;&lt;br&gt;&lt;/h2&gt;" style="strokeWidth=1;shadow=0;dashed=0;align=left;html=1;shape=mxgraph.mockup.text.alphanumeric;linkText=;html=1;fontStyle=0;fontSize=17;strokeColor=none;fillColor=none;verticalAlign=middle;spacingTop=0;" parent="9NFHFE5VKS4REKrybLd1-216" vertex="1">
          <mxGeometry x="80" y="330" width="450" height="50" as="geometry" />
        </mxCell>
        <mxCell id="9NFHFE5VKS4REKrybLd1-224" value="&lt;h2 style=&quot;font-size: 17px&quot;&gt;No&lt;/h2&gt;" style="html=1;shadow=0;dashed=0;shape=mxgraph.bootstrap.rrect;rSize=5;strokeColor=#343A40;strokeWidth=1;fillColor=none;fontColor=#343A40;whiteSpace=wrap;align=center;verticalAlign=middle;spacingLeft=0;fontStyle=0;fontSize=17;spacing=5;" parent="9NFHFE5VKS4REKrybLd1-216" vertex="1">
          <mxGeometry x="660" y="280" width="80" height="40" as="geometry" />
        </mxCell>
        <mxCell id="9NFHFE5VKS4REKrybLd1-225" value="&lt;h2 style=&quot;font-size: 17px&quot;&gt;Yes&lt;/h2&gt;" style="html=1;shadow=0;dashed=0;shape=mxgraph.bootstrap.rrect;rSize=5;strokeColor=#343A40;strokeWidth=1;fillColor=none;fontColor=#343A40;whiteSpace=wrap;align=center;verticalAlign=middle;spacingLeft=0;fontStyle=0;fontSize=17;spacing=5;" parent="9NFHFE5VKS4REKrybLd1-216" vertex="1">
          <mxGeometry x="520" y="280" width="80" height="40" as="geometry" />
        </mxCell>
        <mxCell id="9NFHFE5VKS4REKrybLd1-226" value="&lt;h2&gt;Junk food?&lt;br&gt;&lt;/h2&gt;" style="strokeWidth=1;shadow=0;dashed=0;align=left;html=1;shape=mxgraph.mockup.text.alphanumeric;linkText=;html=1;fontStyle=0;fontSize=17;strokeColor=none;fillColor=none;verticalAlign=middle;spacingTop=0;" parent="9NFHFE5VKS4REKrybLd1-216" vertex="1">
          <mxGeometry x="70" y="350" width="450" height="50" as="geometry" />
        </mxCell>
        <mxCell id="9NFHFE5VKS4REKrybLd1-227" value="&lt;h2 style=&quot;font-size: 17px;&quot;&gt;Yes&lt;/h2&gt;" style="html=1;shadow=0;dashed=0;shape=mxgraph.bootstrap.rrect;rSize=5;strokeColor=#343A40;strokeWidth=1;fillColor=none;fontColor=#343A40;whiteSpace=wrap;align=center;verticalAlign=middle;spacingLeft=0;fontStyle=0;fontSize=17;spacing=5;" parent="9NFHFE5VKS4REKrybLd1-216" vertex="1">
          <mxGeometry x="520" y="350" width="80" height="40" as="geometry" />
        </mxCell>
        <mxCell id="9NFHFE5VKS4REKrybLd1-228" value="&lt;h2 style=&quot;font-size: 17px;&quot;&gt;No&lt;/h2&gt;" style="html=1;shadow=0;dashed=0;shape=mxgraph.bootstrap.rrect;rSize=5;strokeColor=#343A40;strokeWidth=1;fillColor=none;fontColor=#343A40;whiteSpace=wrap;align=center;verticalAlign=middle;spacingLeft=0;fontStyle=0;fontSize=17;spacing=5;" parent="9NFHFE5VKS4REKrybLd1-216" vertex="1">
          <mxGeometry x="660" y="350" width="80" height="40" as="geometry" />
        </mxCell>
        <mxCell id="9NFHFE5VKS4REKrybLd1-229" value="&lt;h2&gt;How many glasses of water have you had?&lt;/h2&gt;" style="strokeWidth=1;shadow=0;dashed=0;align=left;html=1;shape=mxgraph.mockup.text.alphanumeric;linkText=;html=1;fontStyle=0;fontSize=17;strokeColor=none;fillColor=none;verticalAlign=middle;spacingTop=0;" parent="9NFHFE5VKS4REKrybLd1-216" vertex="1">
          <mxGeometry x="70" y="410" width="450" height="50" as="geometry" />
        </mxCell>
        <mxCell id="9NFHFE5VKS4REKrybLd1-230" value="&lt;h2 style=&quot;font-size: 17px&quot;&gt;&lt;font color=&quot;#cccccc&quot;&gt;8&lt;/font&gt;&lt;/h2&gt;" style="html=1;shadow=0;dashed=0;shape=mxgraph.bootstrap.rrect;rSize=5;strokeColor=#343A40;strokeWidth=1;fillColor=none;fontColor=#343A40;whiteSpace=wrap;align=center;verticalAlign=middle;spacingLeft=0;fontStyle=0;fontSize=17;spacing=5;" parent="9NFHFE5VKS4REKrybLd1-216" vertex="1">
          <mxGeometry x="660" y="420" width="80" height="40" as="geometry" />
        </mxCell>
        <mxCell id="PMnQvKvV0bI0PWe8ptfF-23" value="" style="html=1;shadow=0;dashed=0;shape=mxgraph.bootstrap.rrect;rSize=5;html=1;whiteSpace=wrap;fillColor=#ffffff;align=center;strokeColor=#CCCCCC;" parent="9NFHFE5VKS4REKrybLd1-216" vertex="1">
          <mxGeometry x="60" y="510" width="675" height="25" as="geometry" />
        </mxCell>
        <mxCell id="PMnQvKvV0bI0PWe8ptfF-24" value="Sleep" style="strokeColor=inherit;gradientColor=inherit;html=1;shadow=0;dashed=0;shape=mxgraph.bootstrap.leftButton;rSize=5;perimeter=none;whiteSpace=wrap;resizeHeight=1;fillColor=#CCCCCC;strokeColor=none;fontColor=#ffffff;fontSize=12;" parent="PMnQvKvV0bI0PWe8ptfF-23" vertex="1">
          <mxGeometry width="230" height="25" relative="1" as="geometry" />
        </mxCell>
        <mxCell id="PMnQvKvV0bI0PWe8ptfF-25" value="&lt;span style=&quot;background-color: rgb(255 , 255 , 255)&quot;&gt;Nutrition&lt;/span&gt;" style="strokeColor=inherit;fillColor=inherit;gradientColor=inherit;fontColor=inherit;html=1;shadow=0;dashed=0;perimeter=none;whiteSpace=wrap;resizeHeight=1;fontSize=12;" parent="PMnQvKvV0bI0PWe8ptfF-23" vertex="1">
          <mxGeometry width="160" height="25" relative="1" as="geometry">
            <mxPoint x="225" as="offset" />
          </mxGeometry>
        </mxCell>
        <mxCell id="PMnQvKvV0bI0PWe8ptfF-26" value="&lt;b&gt;&lt;font color=&quot;#009900&quot;&gt;Submit&lt;/font&gt;&lt;/b&gt;" style="strokeColor=inherit;fillColor=inherit;gradientColor=inherit;fontColor=inherit;html=1;shadow=0;dashed=0;shape=mxgraph.bootstrap.rightButton;rSize=5;perimeter=none;whiteSpace=wrap;resizeHeight=1;fontSize=12;" parent="PMnQvKvV0bI0PWe8ptfF-23" vertex="1">
          <mxGeometry x="1" width="139" height="25" relative="1" as="geometry">
            <mxPoint x="-132.5" as="offset" />
          </mxGeometry>
        </mxCell>
        <mxCell id="PMnQvKvV0bI0PWe8ptfF-27" value="&lt;span style=&quot;background-color: rgb(255 , 255 , 255)&quot;&gt;Activities&lt;/span&gt;" style="strokeColor=inherit;fillColor=inherit;gradientColor=inherit;fontColor=inherit;html=1;shadow=0;dashed=0;perimeter=none;whiteSpace=wrap;resizeHeight=1;fontSize=12;" parent="PMnQvKvV0bI0PWe8ptfF-23" vertex="1">
          <mxGeometry x="382.5" width="160" height="25" as="geometry" />
        </mxCell>
        <mxCell id="PMnQvKvV0bI0PWe8ptfF-855" value="" style="group" parent="9NFHFE5VKS4REKrybLd1-216" vertex="1" connectable="0">
          <mxGeometry y="110" width="810" height="40" as="geometry" />
        </mxCell>
        <mxCell id="PMnQvKvV0bI0PWe8ptfF-856" value="" style="rounded=0;whiteSpace=wrap;html=1;shadow=0;dashed=1;dashPattern=1 1;sketch=0;strokeColor=#000000;fillColor=none;gradientColor=#ffffff;fontSize=12;align=center;" parent="PMnQvKvV0bI0PWe8ptfF-855" vertex="1">
          <mxGeometry width="810" height="40" as="geometry" />
        </mxCell>
        <mxCell id="PMnQvKvV0bI0PWe8ptfF-857" value="START" style="fillColor=none;fontSize=14;shadow=0;dashed=1;dashPattern=1 1;sketch=0;align=center;rounded=1;" parent="PMnQvKvV0bI0PWe8ptfF-855" vertex="1">
          <mxGeometry x="10" y="10" width="80" height="30" as="geometry" />
        </mxCell>
        <mxCell id="PMnQvKvV0bI0PWe8ptfF-858" value="QUIZ" style="fontSize=14;shadow=0;dashed=1;dashPattern=1 1;sketch=0;align=center;rounded=1;fontStyle=1;labelBackgroundColor=none;fillColor=#E6E6E6;" parent="PMnQvKvV0bI0PWe8ptfF-855" vertex="1">
          <mxGeometry x="90" y="10" width="60" height="30" as="geometry" />
        </mxCell>
        <mxCell id="PMnQvKvV0bI0PWe8ptfF-859" value="DAY " style="strokeColor=#666666;fontSize=14;shadow=0;dashed=1;dashPattern=1 1;sketch=0;align=center;fontStyle=0;fontColor=#333333;rounded=1;fillColor=none;" parent="PMnQvKvV0bI0PWe8ptfF-855" vertex="1">
          <mxGeometry x="150" y="10" width="60" height="30" as="geometry" />
        </mxCell>
        <mxCell id="PMnQvKvV0bI0PWe8ptfF-860" value="ALL DATA" style="fontSize=14;shadow=0;dashed=1;dashPattern=1 1;sketch=0;align=center;rounded=1;fontStyle=0;fillColor=none;" parent="PMnQvKvV0bI0PWe8ptfF-855" vertex="1">
          <mxGeometry x="210" y="10" width="80" height="30" as="geometry" />
        </mxCell>
        <mxCell id="9NFHFE5VKS4REKrybLd1-237" value="&lt;span style=&quot;color: rgba(0 , 0 , 0 , 0) ; font-family: monospace ; font-size: 0px&quot;&gt;%3CmxGraphModel%3E%3Croot%3E%3CmxCell%20id%3D%220%22%2F%3E%3CmxCell%20id%3D%221%22%20parent%3D%220%22%2F%3E%3CmxCell%20id%3D%222%22%20value%3D%22%26lt%3Bh1%26gt%3BHow%20was%20your%20day%3F%26lt%3B%2Fh1%26gt%3B%22%20style%3D%22strokeWidth%3D1%3Bshadow%3D0%3Bdashed%3D0%3Balign%3Dcenter%3Bhtml%3D1%3Bshape%3Dmxgraph.mockup.text.alphanumeric%3BlinkText%3D%3Bhtml%3D1%3BfontStyle%3D0%3BfontSize%3D17%3BstrokeColor%3Dnone%3BfillColor%3Dnone%3B%22%20vertex%3D%221%22%20parent%3D%221%22%3E%3CmxGeometry%20x%3D%22222%22%20y%3D%22985%22%20width%3D%22450%22%20height%3D%2250%22%20as%3D%22geometry%22%2F%3E%3C%2FmxCell%3E%3C%2Froot%3E%3C%2FmxGraphModel%3E&lt;/span&gt;" style="strokeWidth=1;shadow=0;dashed=0;align=center;html=1;shape=mxgraph.mockup.containers.browserWindow;rSize=0;strokeColor=#666666;strokeColor2=#008cff;strokeColor3=#c4c4c4;mainText=,;recursiveResize=0;" parent="1" vertex="1">
          <mxGeometry x="2690" y="770" width="810" height="560" as="geometry" />
        </mxCell>
        <mxCell id="9NFHFE5VKS4REKrybLd1-238" value="Page 1" style="strokeWidth=1;shadow=0;dashed=0;align=center;html=1;shape=mxgraph.mockup.containers.anchor;fontSize=17;fontColor=#666666;align=left;" parent="9NFHFE5VKS4REKrybLd1-237" vertex="1">
          <mxGeometry x="60" y="12" width="110" height="26" as="geometry" />
        </mxCell>
        <mxCell id="9NFHFE5VKS4REKrybLd1-239" value="https://www.draw.io" style="strokeWidth=1;shadow=0;dashed=0;align=center;html=1;shape=mxgraph.mockup.containers.anchor;rSize=0;fontSize=17;fontColor=#666666;align=left;" parent="9NFHFE5VKS4REKrybLd1-237" vertex="1">
          <mxGeometry x="130" y="60" width="250" height="26" as="geometry" />
        </mxCell>
        <mxCell id="9NFHFE5VKS4REKrybLd1-240" value="&lt;h2&gt;Time spent on:&amp;nbsp;&lt;/h2&gt;" style="strokeWidth=1;shadow=0;dashed=0;align=left;html=1;shape=mxgraph.mockup.text.alphanumeric;linkText=;html=1;fontStyle=0;fontSize=17;strokeColor=none;fillColor=none;verticalAlign=middle;spacingTop=0;" parent="9NFHFE5VKS4REKrybLd1-237" vertex="1">
          <mxGeometry x="70" y="195" width="450" height="50" as="geometry" />
        </mxCell>
        <mxCell id="9NFHFE5VKS4REKrybLd1-244" value="&lt;h2&gt;&lt;br&gt;&lt;/h2&gt;" style="strokeWidth=1;shadow=0;dashed=0;align=left;html=1;shape=mxgraph.mockup.text.alphanumeric;linkText=;html=1;fontStyle=0;fontSize=17;strokeColor=none;fillColor=none;verticalAlign=middle;spacingTop=0;" parent="9NFHFE5VKS4REKrybLd1-237" vertex="1">
          <mxGeometry x="80" y="330" width="450" height="50" as="geometry" />
        </mxCell>
        <mxCell id="9NFHFE5VKS4REKrybLd1-281" value="&lt;h2&gt;work&lt;br&gt;&lt;/h2&gt;" style="strokeWidth=1;shadow=0;dashed=0;align=center;html=1;shape=mxgraph.mockup.text.alphanumeric;linkText=;html=1;fontStyle=0;fontSize=17;strokeColor=none;fillColor=none;verticalAlign=middle;spacingTop=0;" parent="9NFHFE5VKS4REKrybLd1-237" vertex="1">
          <mxGeometry x="70" y="270" width="200" height="50" as="geometry" />
        </mxCell>
        <mxCell id="9NFHFE5VKS4REKrybLd1-282" value="&lt;h2 style=&quot;font-size: 17px&quot;&gt;&lt;font color=&quot;#cccccc&quot;&gt;Hours&lt;/font&gt;&lt;/h2&gt;" style="html=1;shadow=0;dashed=0;shape=mxgraph.bootstrap.rrect;rSize=5;strokeColor=#343A40;strokeWidth=1;fillColor=none;fontColor=#343A40;whiteSpace=wrap;align=center;verticalAlign=middle;spacingLeft=0;fontStyle=0;fontSize=17;spacing=5;" parent="9NFHFE5VKS4REKrybLd1-237" vertex="1">
          <mxGeometry x="70" y="320" width="200" height="40" as="geometry" />
        </mxCell>
        <mxCell id="9NFHFE5VKS4REKrybLd1-283" value="&lt;h2&gt;sport&lt;/h2&gt;" style="strokeWidth=1;shadow=0;dashed=0;align=center;html=1;shape=mxgraph.mockup.text.alphanumeric;linkText=;html=1;fontStyle=0;fontSize=17;strokeColor=none;fillColor=none;verticalAlign=middle;spacingTop=0;" parent="9NFHFE5VKS4REKrybLd1-237" vertex="1">
          <mxGeometry x="300" y="270" width="200" height="50" as="geometry" />
        </mxCell>
        <mxCell id="9NFHFE5VKS4REKrybLd1-284" value="&lt;h2 style=&quot;font-size: 17px&quot;&gt;&lt;font color=&quot;#cccccc&quot;&gt;Hours&lt;/font&gt;&lt;/h2&gt;" style="html=1;shadow=0;dashed=0;shape=mxgraph.bootstrap.rrect;rSize=5;strokeColor=#343A40;strokeWidth=1;fillColor=none;fontColor=#343A40;whiteSpace=wrap;align=center;verticalAlign=middle;spacingLeft=0;fontStyle=0;fontSize=17;spacing=5;" parent="9NFHFE5VKS4REKrybLd1-237" vertex="1">
          <mxGeometry x="300" y="320" width="200" height="40" as="geometry" />
        </mxCell>
        <mxCell id="9NFHFE5VKS4REKrybLd1-285" value="&lt;h2&gt;daily tasks&lt;/h2&gt;" style="strokeWidth=1;shadow=0;dashed=0;align=center;html=1;shape=mxgraph.mockup.text.alphanumeric;linkText=;html=1;fontStyle=0;fontSize=17;strokeColor=none;fillColor=none;verticalAlign=middle;spacingTop=0;" parent="9NFHFE5VKS4REKrybLd1-237" vertex="1">
          <mxGeometry x="540" y="270" width="200" height="50" as="geometry" />
        </mxCell>
        <mxCell id="9NFHFE5VKS4REKrybLd1-286" value="&lt;h2 style=&quot;font-size: 17px&quot;&gt;&lt;font color=&quot;#cccccc&quot;&gt;Hours&lt;/font&gt;&lt;/h2&gt;" style="html=1;shadow=0;dashed=0;shape=mxgraph.bootstrap.rrect;rSize=5;strokeColor=#343A40;strokeWidth=1;fillColor=none;fontColor=#343A40;whiteSpace=wrap;align=center;verticalAlign=middle;spacingLeft=0;fontStyle=0;fontSize=17;spacing=5;" parent="9NFHFE5VKS4REKrybLd1-237" vertex="1">
          <mxGeometry x="540" y="320" width="200" height="40" as="geometry" />
        </mxCell>
        <mxCell id="9NFHFE5VKS4REKrybLd1-293" value="&lt;h2&gt;friends&lt;br&gt;&lt;/h2&gt;" style="strokeWidth=1;shadow=0;dashed=0;align=center;html=1;shape=mxgraph.mockup.text.alphanumeric;linkText=;html=1;fontStyle=0;fontSize=17;strokeColor=none;fillColor=none;verticalAlign=middle;spacingTop=0;" parent="9NFHFE5VKS4REKrybLd1-237" vertex="1">
          <mxGeometry x="70" y="399" width="200" height="50" as="geometry" />
        </mxCell>
        <mxCell id="9NFHFE5VKS4REKrybLd1-294" value="&lt;h2 style=&quot;font-size: 17px&quot;&gt;&lt;font color=&quot;#cccccc&quot;&gt;Hours&lt;/font&gt;&lt;/h2&gt;" style="html=1;shadow=0;dashed=0;shape=mxgraph.bootstrap.rrect;rSize=5;strokeColor=#343A40;strokeWidth=1;fillColor=none;fontColor=#343A40;whiteSpace=wrap;align=center;verticalAlign=middle;spacingLeft=0;fontStyle=0;fontSize=17;spacing=5;" parent="9NFHFE5VKS4REKrybLd1-237" vertex="1">
          <mxGeometry x="70" y="449" width="200" height="40" as="geometry" />
        </mxCell>
        <mxCell id="9NFHFE5VKS4REKrybLd1-295" value="&lt;h2&gt;family&lt;br&gt;&lt;/h2&gt;" style="strokeWidth=1;shadow=0;dashed=0;align=center;html=1;shape=mxgraph.mockup.text.alphanumeric;linkText=;html=1;fontStyle=0;fontSize=17;strokeColor=none;fillColor=none;verticalAlign=middle;spacingTop=0;" parent="9NFHFE5VKS4REKrybLd1-237" vertex="1">
          <mxGeometry x="300" y="399" width="200" height="50" as="geometry" />
        </mxCell>
        <mxCell id="9NFHFE5VKS4REKrybLd1-296" value="&lt;h2 style=&quot;font-size: 17px&quot;&gt;&lt;font color=&quot;#cccccc&quot;&gt;Hours&lt;/font&gt;&lt;/h2&gt;" style="html=1;shadow=0;dashed=0;shape=mxgraph.bootstrap.rrect;rSize=5;strokeColor=#343A40;strokeWidth=1;fillColor=none;fontColor=#343A40;whiteSpace=wrap;align=center;verticalAlign=middle;spacingLeft=0;fontStyle=0;fontSize=17;spacing=5;" parent="9NFHFE5VKS4REKrybLd1-237" vertex="1">
          <mxGeometry x="300" y="449" width="200" height="40" as="geometry" />
        </mxCell>
        <mxCell id="9NFHFE5VKS4REKrybLd1-297" value="&lt;h2&gt;reading&lt;/h2&gt;" style="strokeWidth=1;shadow=0;dashed=0;align=center;html=1;shape=mxgraph.mockup.text.alphanumeric;linkText=;html=1;fontStyle=0;fontSize=17;strokeColor=none;fillColor=none;verticalAlign=middle;spacingTop=0;" parent="9NFHFE5VKS4REKrybLd1-237" vertex="1">
          <mxGeometry x="540" y="399" width="200" height="50" as="geometry" />
        </mxCell>
        <mxCell id="9NFHFE5VKS4REKrybLd1-298" value="&lt;h2 style=&quot;font-size: 17px&quot;&gt;&lt;font color=&quot;#cccccc&quot;&gt;Hours&lt;/font&gt;&lt;/h2&gt;" style="html=1;shadow=0;dashed=0;shape=mxgraph.bootstrap.rrect;rSize=5;strokeColor=#343A40;strokeWidth=1;fillColor=none;fontColor=#343A40;whiteSpace=wrap;align=center;verticalAlign=middle;spacingLeft=0;fontStyle=0;fontSize=17;spacing=5;" parent="9NFHFE5VKS4REKrybLd1-237" vertex="1">
          <mxGeometry x="540" y="449" width="200" height="40" as="geometry" />
        </mxCell>
        <mxCell id="PMnQvKvV0bI0PWe8ptfF-28" value="" style="html=1;shadow=0;dashed=0;shape=mxgraph.bootstrap.rrect;rSize=5;html=1;whiteSpace=wrap;fillColor=#ffffff;align=center;strokeColor=#CCCCCC;" parent="9NFHFE5VKS4REKrybLd1-237" vertex="1">
          <mxGeometry x="60" y="520" width="675" height="25" as="geometry" />
        </mxCell>
        <mxCell id="PMnQvKvV0bI0PWe8ptfF-29" value="Sleep" style="strokeColor=inherit;gradientColor=inherit;html=1;shadow=0;dashed=0;shape=mxgraph.bootstrap.leftButton;rSize=5;perimeter=none;whiteSpace=wrap;resizeHeight=1;fillColor=#CCCCCC;strokeColor=none;fontColor=#ffffff;fontSize=12;" parent="PMnQvKvV0bI0PWe8ptfF-28" vertex="1">
          <mxGeometry width="230" height="25" relative="1" as="geometry" />
        </mxCell>
        <mxCell id="PMnQvKvV0bI0PWe8ptfF-30" value="&lt;span style=&quot;background-color: rgb(255 , 255 , 255)&quot;&gt;Nutrition&lt;/span&gt;" style="strokeColor=inherit;fillColor=inherit;gradientColor=inherit;fontColor=inherit;html=1;shadow=0;dashed=0;perimeter=none;whiteSpace=wrap;resizeHeight=1;fontSize=12;" parent="PMnQvKvV0bI0PWe8ptfF-28" vertex="1">
          <mxGeometry width="160" height="25" relative="1" as="geometry">
            <mxPoint x="225" as="offset" />
          </mxGeometry>
        </mxCell>
        <mxCell id="PMnQvKvV0bI0PWe8ptfF-31" value="&lt;b&gt;&lt;font color=&quot;#009900&quot;&gt;Submit&lt;/font&gt;&lt;/b&gt;" style="strokeColor=inherit;fillColor=inherit;gradientColor=inherit;fontColor=inherit;html=1;shadow=0;dashed=0;shape=mxgraph.bootstrap.rightButton;rSize=5;perimeter=none;whiteSpace=wrap;resizeHeight=1;fontSize=12;" parent="PMnQvKvV0bI0PWe8ptfF-28" vertex="1">
          <mxGeometry x="1" width="139" height="25" relative="1" as="geometry">
            <mxPoint x="-132.5" as="offset" />
          </mxGeometry>
        </mxCell>
        <mxCell id="PMnQvKvV0bI0PWe8ptfF-32" value="&lt;span style=&quot;background-color: rgb(255 , 255 , 255)&quot;&gt;Activities&lt;/span&gt;" style="strokeColor=inherit;fillColor=inherit;gradientColor=inherit;fontColor=inherit;html=1;shadow=0;dashed=0;perimeter=none;whiteSpace=wrap;resizeHeight=1;fontSize=12;" parent="PMnQvKvV0bI0PWe8ptfF-28" vertex="1">
          <mxGeometry x="382.5" width="160" height="25" as="geometry" />
        </mxCell>
        <mxCell id="PMnQvKvV0bI0PWe8ptfF-849" value="" style="group" parent="9NFHFE5VKS4REKrybLd1-237" vertex="1" connectable="0">
          <mxGeometry y="110" width="810" height="40" as="geometry" />
        </mxCell>
        <mxCell id="PMnQvKvV0bI0PWe8ptfF-850" value="" style="rounded=0;whiteSpace=wrap;html=1;shadow=0;dashed=1;dashPattern=1 1;sketch=0;strokeColor=#000000;fillColor=none;gradientColor=#ffffff;fontSize=12;align=center;" parent="PMnQvKvV0bI0PWe8ptfF-849" vertex="1">
          <mxGeometry width="810" height="40" as="geometry" />
        </mxCell>
        <mxCell id="PMnQvKvV0bI0PWe8ptfF-851" value="START" style="fillColor=none;fontSize=14;shadow=0;dashed=1;dashPattern=1 1;sketch=0;align=center;rounded=1;" parent="PMnQvKvV0bI0PWe8ptfF-849" vertex="1">
          <mxGeometry x="10" y="10" width="80" height="30" as="geometry" />
        </mxCell>
        <mxCell id="PMnQvKvV0bI0PWe8ptfF-852" value="QUIZ" style="fontSize=14;shadow=0;dashed=1;dashPattern=1 1;sketch=0;align=center;rounded=1;fontStyle=1;labelBackgroundColor=none;fillColor=#E6E6E6;" parent="PMnQvKvV0bI0PWe8ptfF-849" vertex="1">
          <mxGeometry x="90" y="10" width="60" height="30" as="geometry" />
        </mxCell>
        <mxCell id="PMnQvKvV0bI0PWe8ptfF-853" value="DAY " style="strokeColor=#666666;fontSize=14;shadow=0;dashed=1;dashPattern=1 1;sketch=0;align=center;fontStyle=0;fontColor=#333333;rounded=1;fillColor=none;" parent="PMnQvKvV0bI0PWe8ptfF-849" vertex="1">
          <mxGeometry x="150" y="10" width="60" height="30" as="geometry" />
        </mxCell>
        <mxCell id="PMnQvKvV0bI0PWe8ptfF-854" value="ALL DATA" style="fontSize=14;shadow=0;dashed=1;dashPattern=1 1;sketch=0;align=center;rounded=1;fontStyle=0;fillColor=none;" parent="PMnQvKvV0bI0PWe8ptfF-849" vertex="1">
          <mxGeometry x="210" y="10" width="80" height="30" as="geometry" />
        </mxCell>
        <mxCell id="PMnQvKvV0bI0PWe8ptfF-16" value="&lt;font style=&quot;font-size: 21px&quot;&gt;OnHover =&amp;gt; style changes&lt;br&gt;&lt;br&gt;&lt;/font&gt;" style="shape=note;whiteSpace=wrap;html=1;size=0;verticalAlign=top;align=left;spacingTop=-6;shadow=0;dashed=0;strokeWidth=1;fillColor=none;fontSize=17;" parent="1" vertex="1">
          <mxGeometry x="960" y="1360" width="690" height="40" as="geometry" />
        </mxCell>
        <mxCell id="PMnQvKvV0bI0PWe8ptfF-34" value="&lt;font style=&quot;font-size: 21px&quot;&gt;sleep = {&lt;br&gt;&amp;nbsp; sleptWell: true/false,&lt;br&gt;&amp;nbsp; sleepDuration: num,&lt;br&gt;&amp;nbsp; sleepInterupted: true/false,&lt;br&gt;&amp;nbsp; snoozing: true/false,&lt;br&gt;&amp;nbsp; dayNap: true/false&lt;br&gt;}&lt;br&gt;&lt;br&gt;&lt;/font&gt;" style="shape=note;whiteSpace=wrap;html=1;size=0;verticalAlign=top;align=left;spacingTop=-6;shadow=0;dashed=0;strokeWidth=1;fillColor=none;fontSize=17;" parent="1" vertex="1">
          <mxGeometry x="960" y="1420" width="690" height="180" as="geometry" />
        </mxCell>
        <mxCell id="PMnQvKvV0bI0PWe8ptfF-35" value="&lt;font style=&quot;font-size: 21px&quot;&gt;nutrition = {&lt;br&gt;&amp;nbsp; mealRegularity: true/false,&lt;br&gt;&amp;nbsp; skippedMeal: true/false,&lt;br&gt;&amp;nbsp; junkFood: true/false,&lt;br&gt;&amp;nbsp; waterGlasses: num,&lt;br&gt;}&lt;br&gt;&lt;br&gt;&lt;/font&gt;" style="shape=note;whiteSpace=wrap;html=1;size=0;verticalAlign=top;align=left;spacingTop=-6;shadow=0;dashed=0;strokeWidth=1;fillColor=none;fontSize=17;" parent="1" vertex="1">
          <mxGeometry x="1800" y="1360" width="690" height="160" as="geometry" />
        </mxCell>
        <mxCell id="PMnQvKvV0bI0PWe8ptfF-36" value="&lt;font style=&quot;font-size: 21px&quot;&gt;activities = {&lt;br&gt;&amp;nbsp; work: num,&lt;br&gt;&amp;nbsp; sport: num,&lt;br&gt;&amp;nbsp; reading: num,&lt;br&gt;&amp;nbsp; friends: num,&lt;br&gt;&amp;nbsp; dailyTasks: num,&lt;br&gt;&amp;nbsp; energy: restorative/demanding&lt;br&gt;}&lt;br&gt;&lt;br&gt;&lt;/font&gt;" style="shape=note;whiteSpace=wrap;html=1;size=0;verticalAlign=top;align=left;spacingTop=-6;shadow=0;dashed=0;strokeWidth=1;fillColor=none;fontSize=17;" parent="1" vertex="1">
          <mxGeometry x="2689" y="1360" width="690" height="210" as="geometry" />
        </mxCell>
        <mxCell id="9NFHFE5VKS4REKrybLd1-40" value="&lt;font style=&quot;font-size: 21px&quot;&gt;OnHover =&amp;gt; style changes + description appeares&lt;br&gt;&lt;/font&gt;" style="shape=note;whiteSpace=wrap;html=1;size=14;verticalAlign=top;align=left;spacingTop=-6;shadow=0;dashed=0;strokeWidth=1;fillColor=none;fontSize=17;" parent="1" vertex="1">
          <mxGeometry x="75" y="1350" width="677" height="70" as="geometry" />
        </mxCell>
        <mxCell id="PMnQvKvV0bI0PWe8ptfF-51" value="&lt;font style=&quot;font-size: 21px&quot;&gt;day = {&lt;br&gt;&amp;nbsp; date: date,&lt;br&gt;&amp;nbsp; dayEvaluation: num,&lt;br&gt;&amp;nbsp; dayDescription: string,&lt;br&gt;&amp;nbsp; sleepRated: 1/2/3/4/5,&lt;br&gt;&amp;nbsp; nutritionRated: 1/2/3/4/5&lt;br&gt;&amp;nbsp; hydrationRted: 1/2/3/4/5&lt;br&gt;&amp;nbsp; restorativeActivitiesTime: num,&lt;br&gt;&amp;nbsp; demandingActivitiesTime: num&lt;br&gt;}&lt;br&gt;&lt;br&gt;&lt;br&gt;passed from survey components:&lt;br&gt;sleep:&amp;nbsp;&lt;u&gt;well/tolerable/poorly&lt;/u&gt;-rested:&amp;nbsp;&lt;u&gt;8h&lt;/u&gt; of &lt;u&gt;uninterrupted&lt;/u&gt; sleep,&amp;nbsp;&lt;u&gt;postponed&lt;/u&gt;/&lt;u&gt;easy&lt;/u&gt; wake-up, no &lt;u&gt;no&lt;/u&gt; day naps;&amp;nbsp;&lt;br&gt;&lt;br&gt;nutrition: &lt;u&gt;well/tolerable/poorly&lt;/u&gt; nourished, regular/irregular meals, skipper/no skipped meals, &lt;u&gt;junk/only healthy&lt;/u&gt; food&amp;nbsp;&amp;nbsp;&lt;br&gt;water: hydrated&amp;nbsp;&lt;u&gt;well/tolerable/poorly&lt;/u&gt;, &lt;u&gt;num&lt;/u&gt; glasses = &lt;u&gt;num&lt;/u&gt; L&lt;br&gt;activities: &lt;u&gt;name&lt;/u&gt;, &lt;u&gt;duration&lt;/u&gt;&lt;br&gt;&lt;/font&gt;" style="shape=note;whiteSpace=wrap;html=1;size=0;verticalAlign=top;align=left;spacingTop=-6;shadow=0;dashed=0;strokeWidth=1;fillColor=none;fontSize=17;" parent="1" vertex="1">
          <mxGeometry x="68" y="2380" width="752" height="480" as="geometry" />
        </mxCell>
        <mxCell id="PMnQvKvV0bI0PWe8ptfF-37" value="" style="strokeWidth=1;shadow=0;dashed=0;align=center;html=1;shape=mxgraph.mockup.containers.browserWindow;rSize=0;strokeColor=#666666;strokeColor2=#008cff;strokeColor3=#c4c4c4;mainText=,;recursiveResize=0;" parent="1" vertex="1">
          <mxGeometry x="67" y="1753" width="823" height="572" as="geometry" />
        </mxCell>
        <mxCell id="PMnQvKvV0bI0PWe8ptfF-38" value="Page 1" style="strokeWidth=1;shadow=0;dashed=0;align=center;html=1;shape=mxgraph.mockup.containers.anchor;fontSize=17;fontColor=#666666;align=left;" parent="PMnQvKvV0bI0PWe8ptfF-37" vertex="1">
          <mxGeometry x="60" y="12" width="110" height="26" as="geometry" />
        </mxCell>
        <mxCell id="PMnQvKvV0bI0PWe8ptfF-39" value="https://www.draw.io" style="strokeWidth=1;shadow=0;dashed=0;align=center;html=1;shape=mxgraph.mockup.containers.anchor;rSize=0;fontSize=17;fontColor=#666666;align=left;" parent="PMnQvKvV0bI0PWe8ptfF-37" vertex="1">
          <mxGeometry x="130" y="60" width="250" height="26" as="geometry" />
        </mxCell>
        <mxCell id="PMnQvKvV0bI0PWe8ptfF-40" value="&lt;h3&gt;&lt;font face=&quot;arial, sans-serif&quot; color=&quot;#4f4f4f&quot;&gt;&lt;span style=&quot;font-size: 49px ; background-color: rgb(255 , 255 , 255)&quot;&gt;Day overview&lt;/span&gt;&lt;/font&gt;&lt;/h3&gt;" style="strokeWidth=1;shadow=0;align=center;html=1;shape=mxgraph.mockup.text.alphanumeric;linkText=;html=1;fontStyle=0;fontSize=17;strokeColor=none;fillColor=none;sketch=0;opacity=50;" parent="PMnQvKvV0bI0PWe8ptfF-37" vertex="1">
          <mxGeometry x="19.5" y="170" width="317" height="50" as="geometry" />
        </mxCell>
        <mxCell id="PMnQvKvV0bI0PWe8ptfF-52" value="" style="group" parent="PMnQvKvV0bI0PWe8ptfF-37" vertex="1" connectable="0">
          <mxGeometry x="392" y="182" width="285" height="36" as="geometry" />
        </mxCell>
        <mxCell id="PMnQvKvV0bI0PWe8ptfF-41" value="" style="verticalLabelPosition=bottom;verticalAlign=top;html=1;shape=mxgraph.basic.star;shadow=0;dashed=0;strokeWidth=1;fillColor=#CCCCCC;fontSize=17;" parent="PMnQvKvV0bI0PWe8ptfF-52" vertex="1">
          <mxGeometry width="44.63087248322148" height="36" as="geometry" />
        </mxCell>
        <mxCell id="PMnQvKvV0bI0PWe8ptfF-42" value="" style="verticalLabelPosition=bottom;verticalAlign=top;html=1;shape=mxgraph.basic.star;shadow=0;dashed=0;strokeWidth=1;fillColor=#CCCCCC;fontSize=17;" parent="PMnQvKvV0bI0PWe8ptfF-52" vertex="1">
          <mxGeometry x="61.845637583892625" width="44.63087248322148" height="36" as="geometry" />
        </mxCell>
        <mxCell id="PMnQvKvV0bI0PWe8ptfF-43" value="" style="verticalLabelPosition=bottom;verticalAlign=top;html=1;shape=mxgraph.basic.star;shadow=0;dashed=0;strokeWidth=1;fillColor=#CCCCCC;fontSize=17;" parent="PMnQvKvV0bI0PWe8ptfF-52" vertex="1">
          <mxGeometry x="125.6040268456376" width="44.63087248322148" height="36" as="geometry" />
        </mxCell>
        <mxCell id="PMnQvKvV0bI0PWe8ptfF-44" value="" style="verticalLabelPosition=bottom;verticalAlign=top;html=1;shape=mxgraph.basic.star;shadow=0;dashed=0;strokeWidth=1;fillColor=none;fontSize=17;" parent="PMnQvKvV0bI0PWe8ptfF-52" vertex="1">
          <mxGeometry x="182.98657718120808" width="44.63087248322148" height="36" as="geometry" />
        </mxCell>
        <mxCell id="PMnQvKvV0bI0PWe8ptfF-45" value="" style="verticalLabelPosition=bottom;verticalAlign=top;html=1;shape=mxgraph.basic.star;shadow=0;dashed=0;strokeWidth=1;fillColor=none;fontSize=17;" parent="PMnQvKvV0bI0PWe8ptfF-52" vertex="1">
          <mxGeometry x="240.3691275167786" width="44.63087248322148" height="36" as="geometry" />
        </mxCell>
        <mxCell id="PMnQvKvV0bI0PWe8ptfF-55" value="" style="strokeWidth=1;shadow=0;dashed=1;align=center;html=1;shape=mxgraph.mockup.forms.rrect;rSize=5;strokeColor=#999999;fillColor=#ffffff;" parent="PMnQvKvV0bI0PWe8ptfF-37" vertex="1">
          <mxGeometry x="30" y="256" width="310" height="280" as="geometry" />
        </mxCell>
        <mxCell id="PMnQvKvV0bI0PWe8ptfF-56" value="October 2020" style="strokeWidth=1;shadow=0;dashed=0;align=center;html=1;shape=mxgraph.mockup.forms.anchor;fontColor=#999999;" parent="PMnQvKvV0bI0PWe8ptfF-55" vertex="1">
          <mxGeometry x="58.12499999999999" y="12.799999999999999" width="193.75" height="31.999999999999996" as="geometry" />
        </mxCell>
        <mxCell id="PMnQvKvV0bI0PWe8ptfF-57" value="&lt;" style="strokeWidth=1;shadow=0;dashed=0;align=center;html=1;shape=mxgraph.mockup.forms.rrect;rSize=4;strokeColor=#999999;fontColor=#008cff;fontSize=19;fontStyle=1;" parent="PMnQvKvV0bI0PWe8ptfF-55" vertex="1">
          <mxGeometry x="15.5" y="12.799999999999999" width="48.4375" height="31.999999999999996" as="geometry" />
        </mxCell>
        <mxCell id="PMnQvKvV0bI0PWe8ptfF-58" value="&gt;" style="strokeWidth=1;shadow=0;dashed=0;align=center;html=1;shape=mxgraph.mockup.forms.rrect;rSize=4;strokeColor=#999999;fontColor=#008cff;fontSize=19;fontStyle=1;" parent="PMnQvKvV0bI0PWe8ptfF-55" vertex="1">
          <mxGeometry x="246.0625" y="12.799999999999999" width="48.4375" height="31.999999999999996" as="geometry" />
        </mxCell>
        <mxCell id="PMnQvKvV0bI0PWe8ptfF-59" value="Mo" style="strokeWidth=1;shadow=0;dashed=0;align=center;html=1;shape=mxgraph.mockup.forms.anchor;fontColor=#999999;" parent="PMnQvKvV0bI0PWe8ptfF-55" vertex="1">
          <mxGeometry x="19.375000000000004" y="44.800000000000004" width="38.75000000000001" height="31.999999999999996" as="geometry" />
        </mxCell>
        <mxCell id="PMnQvKvV0bI0PWe8ptfF-60" value="Tu" style="strokeWidth=1;shadow=0;dashed=0;align=center;html=1;shape=mxgraph.mockup.forms.anchor;fontColor=#999999;" parent="PMnQvKvV0bI0PWe8ptfF-55" vertex="1">
          <mxGeometry x="58.12499999999999" y="44.800000000000004" width="38.75000000000001" height="31.999999999999996" as="geometry" />
        </mxCell>
        <mxCell id="PMnQvKvV0bI0PWe8ptfF-61" value="We" style="strokeWidth=1;shadow=0;dashed=0;align=center;html=1;shape=mxgraph.mockup.forms.anchor;fontColor=#999999;" parent="PMnQvKvV0bI0PWe8ptfF-55" vertex="1">
          <mxGeometry x="96.875" y="44.800000000000004" width="38.75000000000001" height="31.999999999999996" as="geometry" />
        </mxCell>
        <mxCell id="PMnQvKvV0bI0PWe8ptfF-62" value="Th" style="strokeWidth=1;shadow=0;dashed=0;align=center;html=1;shape=mxgraph.mockup.forms.anchor;fontColor=#999999;" parent="PMnQvKvV0bI0PWe8ptfF-55" vertex="1">
          <mxGeometry x="135.62499999999997" y="44.800000000000004" width="38.75000000000001" height="31.999999999999996" as="geometry" />
        </mxCell>
        <mxCell id="PMnQvKvV0bI0PWe8ptfF-63" value="Fr" style="strokeWidth=1;shadow=0;dashed=0;align=center;html=1;shape=mxgraph.mockup.forms.anchor;fontColor=#999999;" parent="PMnQvKvV0bI0PWe8ptfF-55" vertex="1">
          <mxGeometry x="174.375" y="44.800000000000004" width="38.75000000000001" height="31.999999999999996" as="geometry" />
        </mxCell>
        <mxCell id="PMnQvKvV0bI0PWe8ptfF-64" value="Sa" style="strokeWidth=1;shadow=0;dashed=0;align=center;html=1;shape=mxgraph.mockup.forms.anchor;fontColor=#999999;" parent="PMnQvKvV0bI0PWe8ptfF-55" vertex="1">
          <mxGeometry x="213.125" y="44.800000000000004" width="38.75000000000001" height="31.999999999999996" as="geometry" />
        </mxCell>
        <mxCell id="PMnQvKvV0bI0PWe8ptfF-65" value="Su" style="strokeWidth=1;shadow=0;dashed=0;align=center;html=1;shape=mxgraph.mockup.forms.anchor;fontColor=#999999;" parent="PMnQvKvV0bI0PWe8ptfF-55" vertex="1">
          <mxGeometry x="251.875" y="44.800000000000004" width="38.75000000000001" height="31.999999999999996" as="geometry" />
        </mxCell>
        <mxCell id="PMnQvKvV0bI0PWe8ptfF-66" value="1" style="strokeWidth=1;shadow=0;dashed=0;align=center;html=1;shape=mxgraph.mockup.forms.rrect;rSize=0;strokeColor=#999999;fontColor=#999999;" parent="PMnQvKvV0bI0PWe8ptfF-55" vertex="1">
          <mxGeometry x="19.375000000000004" y="76.80000000000001" width="38.75000000000001" height="31.999999999999996" as="geometry" />
        </mxCell>
        <mxCell id="PMnQvKvV0bI0PWe8ptfF-67" value="2" style="strokeWidth=1;shadow=0;dashed=0;align=center;html=1;shape=mxgraph.mockup.forms.rrect;rSize=0;strokeColor=#999999;fontColor=#999999;" parent="PMnQvKvV0bI0PWe8ptfF-55" vertex="1">
          <mxGeometry x="58.12499999999999" y="76.80000000000001" width="38.75000000000001" height="31.999999999999996" as="geometry" />
        </mxCell>
        <mxCell id="PMnQvKvV0bI0PWe8ptfF-68" value="3" style="strokeWidth=1;shadow=0;dashed=0;align=center;html=1;shape=mxgraph.mockup.forms.rrect;rSize=0;strokeColor=#999999;fontColor=#999999;" parent="PMnQvKvV0bI0PWe8ptfF-55" vertex="1">
          <mxGeometry x="96.875" y="76.80000000000001" width="38.75000000000001" height="31.999999999999996" as="geometry" />
        </mxCell>
        <mxCell id="PMnQvKvV0bI0PWe8ptfF-69" value="4" style="strokeWidth=1;shadow=0;dashed=0;align=center;html=1;shape=mxgraph.mockup.forms.rrect;rSize=0;strokeColor=#999999;fontColor=#999999;" parent="PMnQvKvV0bI0PWe8ptfF-55" vertex="1">
          <mxGeometry x="135.62499999999997" y="76.80000000000001" width="38.75000000000001" height="31.999999999999996" as="geometry" />
        </mxCell>
        <mxCell id="PMnQvKvV0bI0PWe8ptfF-70" value="5" style="strokeWidth=1;shadow=0;dashed=0;align=center;html=1;shape=mxgraph.mockup.forms.rrect;rSize=0;strokeColor=#999999;fontColor=#999999;" parent="PMnQvKvV0bI0PWe8ptfF-55" vertex="1">
          <mxGeometry x="174.375" y="76.80000000000001" width="38.75000000000001" height="31.999999999999996" as="geometry" />
        </mxCell>
        <mxCell id="PMnQvKvV0bI0PWe8ptfF-71" value="6" style="strokeWidth=1;shadow=0;dashed=0;align=center;html=1;shape=mxgraph.mockup.forms.rrect;rSize=0;strokeColor=#999999;fontColor=#999999;" parent="PMnQvKvV0bI0PWe8ptfF-55" vertex="1">
          <mxGeometry x="213.125" y="76.80000000000001" width="38.75000000000001" height="31.999999999999996" as="geometry" />
        </mxCell>
        <mxCell id="PMnQvKvV0bI0PWe8ptfF-72" value="7" style="strokeWidth=1;shadow=0;dashed=0;align=center;html=1;shape=mxgraph.mockup.forms.rrect;rSize=0;strokeColor=#999999;fontColor=#999999;" parent="PMnQvKvV0bI0PWe8ptfF-55" vertex="1">
          <mxGeometry x="251.875" y="76.80000000000001" width="38.75000000000001" height="31.999999999999996" as="geometry" />
        </mxCell>
        <mxCell id="PMnQvKvV0bI0PWe8ptfF-73" value="8" style="strokeWidth=1;shadow=0;dashed=0;align=center;html=1;shape=mxgraph.mockup.forms.rrect;rSize=0;strokeColor=#999999;fontColor=#999999;" parent="PMnQvKvV0bI0PWe8ptfF-55" vertex="1">
          <mxGeometry x="19.375000000000004" y="108.80000000000001" width="38.75000000000001" height="31.999999999999996" as="geometry" />
        </mxCell>
        <mxCell id="PMnQvKvV0bI0PWe8ptfF-74" value="9" style="strokeWidth=1;shadow=0;dashed=0;align=center;html=1;shape=mxgraph.mockup.forms.rrect;rSize=0;strokeColor=#999999;fontColor=#999999;" parent="PMnQvKvV0bI0PWe8ptfF-55" vertex="1">
          <mxGeometry x="58.12499999999999" y="108.80000000000001" width="38.75000000000001" height="31.999999999999996" as="geometry" />
        </mxCell>
        <mxCell id="PMnQvKvV0bI0PWe8ptfF-75" value="10" style="strokeWidth=1;shadow=0;dashed=0;align=center;html=1;shape=mxgraph.mockup.forms.rrect;rSize=0;strokeColor=#999999;fontColor=#999999;" parent="PMnQvKvV0bI0PWe8ptfF-55" vertex="1">
          <mxGeometry x="96.875" y="108.80000000000001" width="38.75000000000001" height="31.999999999999996" as="geometry" />
        </mxCell>
        <mxCell id="PMnQvKvV0bI0PWe8ptfF-76" value="11" style="strokeWidth=1;shadow=0;dashed=0;align=center;html=1;shape=mxgraph.mockup.forms.rrect;rSize=0;strokeColor=#999999;fontColor=#999999;" parent="PMnQvKvV0bI0PWe8ptfF-55" vertex="1">
          <mxGeometry x="135.62499999999997" y="108.80000000000001" width="38.75000000000001" height="31.999999999999996" as="geometry" />
        </mxCell>
        <mxCell id="PMnQvKvV0bI0PWe8ptfF-77" value="12" style="strokeWidth=1;shadow=0;dashed=0;align=center;html=1;shape=mxgraph.mockup.forms.rrect;rSize=0;strokeColor=#999999;fontColor=#999999;" parent="PMnQvKvV0bI0PWe8ptfF-55" vertex="1">
          <mxGeometry x="174.375" y="108.80000000000001" width="38.75000000000001" height="31.999999999999996" as="geometry" />
        </mxCell>
        <mxCell id="PMnQvKvV0bI0PWe8ptfF-78" value="13" style="strokeWidth=1;shadow=0;dashed=0;align=center;html=1;shape=mxgraph.mockup.forms.rrect;rSize=0;strokeColor=#999999;fontColor=#999999;" parent="PMnQvKvV0bI0PWe8ptfF-55" vertex="1">
          <mxGeometry x="213.125" y="108.80000000000001" width="38.75000000000001" height="31.999999999999996" as="geometry" />
        </mxCell>
        <mxCell id="PMnQvKvV0bI0PWe8ptfF-79" value="14" style="strokeWidth=1;shadow=0;dashed=0;align=center;html=1;shape=mxgraph.mockup.forms.rrect;rSize=0;strokeColor=#999999;fontColor=#999999;" parent="PMnQvKvV0bI0PWe8ptfF-55" vertex="1">
          <mxGeometry x="251.875" y="108.80000000000001" width="38.75000000000001" height="31.999999999999996" as="geometry" />
        </mxCell>
        <mxCell id="PMnQvKvV0bI0PWe8ptfF-80" value="15" style="strokeWidth=1;shadow=0;dashed=0;align=center;html=1;shape=mxgraph.mockup.forms.rrect;rSize=0;strokeColor=#999999;fontColor=#999999;" parent="PMnQvKvV0bI0PWe8ptfF-55" vertex="1">
          <mxGeometry x="19.375000000000004" y="140.8" width="38.75000000000001" height="31.999999999999996" as="geometry" />
        </mxCell>
        <mxCell id="PMnQvKvV0bI0PWe8ptfF-81" value="16" style="strokeWidth=1;shadow=0;dashed=0;align=center;html=1;shape=mxgraph.mockup.forms.rrect;rSize=0;strokeColor=#999999;fontColor=#999999;" parent="PMnQvKvV0bI0PWe8ptfF-55" vertex="1">
          <mxGeometry x="58.12499999999999" y="140.8" width="38.75000000000001" height="31.999999999999996" as="geometry" />
        </mxCell>
        <mxCell id="PMnQvKvV0bI0PWe8ptfF-82" value="17" style="strokeWidth=1;shadow=0;dashed=0;align=center;html=1;shape=mxgraph.mockup.forms.rrect;rSize=0;strokeColor=#999999;fontColor=#999999;" parent="PMnQvKvV0bI0PWe8ptfF-55" vertex="1">
          <mxGeometry x="96.875" y="140.8" width="38.75000000000001" height="31.999999999999996" as="geometry" />
        </mxCell>
        <mxCell id="PMnQvKvV0bI0PWe8ptfF-83" value="18" style="strokeWidth=1;shadow=0;dashed=0;align=center;html=1;shape=mxgraph.mockup.forms.rrect;rSize=0;strokeColor=#999999;fontColor=#999999;" parent="PMnQvKvV0bI0PWe8ptfF-55" vertex="1">
          <mxGeometry x="135.62499999999997" y="140.8" width="38.75000000000001" height="31.999999999999996" as="geometry" />
        </mxCell>
        <mxCell id="PMnQvKvV0bI0PWe8ptfF-84" value="19" style="strokeWidth=1;shadow=0;dashed=0;align=center;html=1;shape=mxgraph.mockup.forms.rrect;rSize=0;strokeColor=#999999;fontColor=#999999;" parent="PMnQvKvV0bI0PWe8ptfF-55" vertex="1">
          <mxGeometry x="174.375" y="140.8" width="38.75000000000001" height="31.999999999999996" as="geometry" />
        </mxCell>
        <mxCell id="PMnQvKvV0bI0PWe8ptfF-85" value="20" style="strokeWidth=1;shadow=0;dashed=0;align=center;html=1;shape=mxgraph.mockup.forms.rrect;rSize=0;strokeColor=#999999;fontColor=#999999;" parent="PMnQvKvV0bI0PWe8ptfF-55" vertex="1">
          <mxGeometry x="213.125" y="140.8" width="38.75000000000001" height="31.999999999999996" as="geometry" />
        </mxCell>
        <mxCell id="PMnQvKvV0bI0PWe8ptfF-86" value="21" style="strokeWidth=1;shadow=0;dashed=0;align=center;html=1;shape=mxgraph.mockup.forms.rrect;rSize=0;strokeColor=#999999;fontColor=#999999;" parent="PMnQvKvV0bI0PWe8ptfF-55" vertex="1">
          <mxGeometry x="251.875" y="140.8" width="38.75000000000001" height="31.999999999999996" as="geometry" />
        </mxCell>
        <mxCell id="PMnQvKvV0bI0PWe8ptfF-87" value="22" style="strokeWidth=1;shadow=0;dashed=0;align=center;html=1;shape=mxgraph.mockup.forms.rrect;rSize=0;strokeColor=#999999;fontColor=#999999;" parent="PMnQvKvV0bI0PWe8ptfF-55" vertex="1">
          <mxGeometry x="19.375000000000004" y="172.8" width="38.75000000000001" height="31.999999999999996" as="geometry" />
        </mxCell>
        <mxCell id="PMnQvKvV0bI0PWe8ptfF-88" value="23" style="strokeWidth=1;shadow=0;dashed=0;align=center;html=1;shape=mxgraph.mockup.forms.rrect;rSize=0;strokeColor=#999999;fontColor=#999999;" parent="PMnQvKvV0bI0PWe8ptfF-55" vertex="1">
          <mxGeometry x="58.12499999999999" y="172.8" width="38.75000000000001" height="31.999999999999996" as="geometry" />
        </mxCell>
        <mxCell id="PMnQvKvV0bI0PWe8ptfF-89" value="25" style="strokeWidth=1;shadow=0;dashed=0;align=center;html=1;shape=mxgraph.mockup.forms.rrect;rSize=0;strokeColor=#999999;fontColor=#999999;" parent="PMnQvKvV0bI0PWe8ptfF-55" vertex="1">
          <mxGeometry x="135.62499999999997" y="172.8" width="38.75000000000001" height="31.999999999999996" as="geometry" />
        </mxCell>
        <mxCell id="PMnQvKvV0bI0PWe8ptfF-90" value="26" style="strokeWidth=1;shadow=0;dashed=0;align=center;html=1;shape=mxgraph.mockup.forms.rrect;rSize=0;strokeColor=#999999;fontColor=#999999;" parent="PMnQvKvV0bI0PWe8ptfF-55" vertex="1">
          <mxGeometry x="174.375" y="172.8" width="38.75000000000001" height="31.999999999999996" as="geometry" />
        </mxCell>
        <mxCell id="PMnQvKvV0bI0PWe8ptfF-91" value="27" style="strokeWidth=1;shadow=0;dashed=0;align=center;html=1;shape=mxgraph.mockup.forms.rrect;rSize=0;strokeColor=#999999;fontColor=#999999;" parent="PMnQvKvV0bI0PWe8ptfF-55" vertex="1">
          <mxGeometry x="213.125" y="172.8" width="38.75000000000001" height="31.999999999999996" as="geometry" />
        </mxCell>
        <mxCell id="PMnQvKvV0bI0PWe8ptfF-92" value="28" style="strokeWidth=1;shadow=0;dashed=0;align=center;html=1;shape=mxgraph.mockup.forms.rrect;rSize=0;strokeColor=#999999;fontColor=#999999;" parent="PMnQvKvV0bI0PWe8ptfF-55" vertex="1">
          <mxGeometry x="251.875" y="172.8" width="38.75000000000001" height="31.999999999999996" as="geometry" />
        </mxCell>
        <mxCell id="PMnQvKvV0bI0PWe8ptfF-93" value="29" style="strokeWidth=1;shadow=0;dashed=0;align=center;html=1;shape=mxgraph.mockup.forms.rrect;rSize=0;strokeColor=#999999;fontColor=#999999;" parent="PMnQvKvV0bI0PWe8ptfF-55" vertex="1">
          <mxGeometry x="19.375000000000004" y="204.79999999999998" width="38.75000000000001" height="31.999999999999996" as="geometry" />
        </mxCell>
        <mxCell id="PMnQvKvV0bI0PWe8ptfF-94" value="30" style="strokeWidth=1;shadow=0;dashed=0;align=center;html=1;shape=mxgraph.mockup.forms.rrect;rSize=0;strokeColor=#999999;fontColor=#999999;" parent="PMnQvKvV0bI0PWe8ptfF-55" vertex="1">
          <mxGeometry x="58.12499999999999" y="204.79999999999998" width="38.75000000000001" height="31.999999999999996" as="geometry" />
        </mxCell>
        <mxCell id="PMnQvKvV0bI0PWe8ptfF-95" value="31" style="strokeWidth=1;shadow=0;dashed=0;align=center;html=1;shape=mxgraph.mockup.forms.rrect;rSize=0;strokeColor=#999999;fontColor=#999999;" parent="PMnQvKvV0bI0PWe8ptfF-55" vertex="1">
          <mxGeometry x="96.875" y="204.79999999999998" width="38.75000000000001" height="31.999999999999996" as="geometry" />
        </mxCell>
        <mxCell id="PMnQvKvV0bI0PWe8ptfF-96" value="1" style="strokeWidth=1;shadow=0;dashed=0;align=center;html=1;shape=mxgraph.mockup.forms.rrect;rSize=0;strokeColor=#999999;fontColor=#999999;fillColor=#ddeeff;" parent="PMnQvKvV0bI0PWe8ptfF-55" vertex="1">
          <mxGeometry x="135.62499999999997" y="204.79999999999998" width="38.75000000000001" height="31.999999999999996" as="geometry" />
        </mxCell>
        <mxCell id="PMnQvKvV0bI0PWe8ptfF-97" value="2" style="strokeWidth=1;shadow=0;dashed=0;align=center;html=1;shape=mxgraph.mockup.forms.rrect;rSize=0;strokeColor=#999999;fontColor=#999999;fillColor=#ddeeff;" parent="PMnQvKvV0bI0PWe8ptfF-55" vertex="1">
          <mxGeometry x="174.375" y="204.79999999999998" width="38.75000000000001" height="31.999999999999996" as="geometry" />
        </mxCell>
        <mxCell id="PMnQvKvV0bI0PWe8ptfF-98" value="3" style="strokeWidth=1;shadow=0;dashed=0;align=center;html=1;shape=mxgraph.mockup.forms.rrect;rSize=0;strokeColor=#999999;fontColor=#999999;fillColor=#ddeeff;" parent="PMnQvKvV0bI0PWe8ptfF-55" vertex="1">
          <mxGeometry x="213.125" y="204.79999999999998" width="38.75000000000001" height="31.999999999999996" as="geometry" />
        </mxCell>
        <mxCell id="PMnQvKvV0bI0PWe8ptfF-99" value="4" style="strokeWidth=1;shadow=0;dashed=0;align=center;html=1;shape=mxgraph.mockup.forms.rrect;rSize=0;strokeColor=#999999;fontColor=#999999;fillColor=#ddeeff;" parent="PMnQvKvV0bI0PWe8ptfF-55" vertex="1">
          <mxGeometry x="251.875" y="204.79999999999998" width="38.75000000000001" height="31.999999999999996" as="geometry" />
        </mxCell>
        <mxCell id="PMnQvKvV0bI0PWe8ptfF-100" value="5" style="strokeWidth=1;shadow=0;dashed=0;align=center;html=1;shape=mxgraph.mockup.forms.rrect;rSize=0;strokeColor=#999999;fontColor=#999999;fillColor=#ddeeff;" parent="PMnQvKvV0bI0PWe8ptfF-55" vertex="1">
          <mxGeometry x="19.375000000000004" y="236.8" width="38.75000000000001" height="31.999999999999996" as="geometry" />
        </mxCell>
        <mxCell id="PMnQvKvV0bI0PWe8ptfF-101" value="6" style="strokeWidth=1;shadow=0;dashed=0;align=center;html=1;shape=mxgraph.mockup.forms.rrect;rSize=0;strokeColor=#999999;fontColor=#999999;fillColor=#ddeeff;" parent="PMnQvKvV0bI0PWe8ptfF-55" vertex="1">
          <mxGeometry x="58.12499999999999" y="236.8" width="38.75000000000001" height="31.999999999999996" as="geometry" />
        </mxCell>
        <mxCell id="PMnQvKvV0bI0PWe8ptfF-102" value="7" style="strokeWidth=1;shadow=0;dashed=0;align=center;html=1;shape=mxgraph.mockup.forms.rrect;rSize=0;strokeColor=#999999;fontColor=#999999;fillColor=#ddeeff;" parent="PMnQvKvV0bI0PWe8ptfF-55" vertex="1">
          <mxGeometry x="96.875" y="236.8" width="38.75000000000001" height="31.999999999999996" as="geometry" />
        </mxCell>
        <mxCell id="PMnQvKvV0bI0PWe8ptfF-103" value="8" style="strokeWidth=1;shadow=0;dashed=0;align=center;html=1;shape=mxgraph.mockup.forms.rrect;rSize=0;strokeColor=#999999;fontColor=#999999;fillColor=#ddeeff;" parent="PMnQvKvV0bI0PWe8ptfF-55" vertex="1">
          <mxGeometry x="135.62499999999997" y="236.8" width="38.75000000000001" height="31.999999999999996" as="geometry" />
        </mxCell>
        <mxCell id="PMnQvKvV0bI0PWe8ptfF-104" value="9" style="strokeWidth=1;shadow=0;dashed=0;align=center;html=1;shape=mxgraph.mockup.forms.rrect;rSize=0;strokeColor=#999999;fontColor=#999999;fillColor=#ddeeff;" parent="PMnQvKvV0bI0PWe8ptfF-55" vertex="1">
          <mxGeometry x="174.375" y="236.8" width="38.75000000000001" height="31.999999999999996" as="geometry" />
        </mxCell>
        <mxCell id="PMnQvKvV0bI0PWe8ptfF-105" value="10" style="strokeWidth=1;shadow=0;dashed=0;align=center;html=1;shape=mxgraph.mockup.forms.rrect;rSize=0;strokeColor=#999999;fontColor=#999999;fillColor=#ddeeff;" parent="PMnQvKvV0bI0PWe8ptfF-55" vertex="1">
          <mxGeometry x="213.125" y="236.8" width="38.75000000000001" height="31.999999999999996" as="geometry" />
        </mxCell>
        <mxCell id="PMnQvKvV0bI0PWe8ptfF-106" value="11" style="strokeWidth=1;shadow=0;dashed=0;align=center;html=1;shape=mxgraph.mockup.forms.rrect;rSize=0;strokeColor=#999999;fontColor=#999999;fillColor=#ddeeff;" parent="PMnQvKvV0bI0PWe8ptfF-55" vertex="1">
          <mxGeometry x="251.875" y="236.8" width="38.75000000000001" height="31.999999999999996" as="geometry" />
        </mxCell>
        <mxCell id="PMnQvKvV0bI0PWe8ptfF-107" value="24" style="strokeWidth=1;shadow=0;dashed=0;align=center;html=1;shape=mxgraph.mockup.forms.rrect;rSize=0;strokeColor=#ff0000;fontColor=#ffffff;strokeWidth=2;fillColor=#008cff;" parent="PMnQvKvV0bI0PWe8ptfF-55" vertex="1">
          <mxGeometry x="96.875" y="172.8" width="38.75000000000001" height="31.999999999999996" as="geometry" />
        </mxCell>
        <mxCell id="PMnQvKvV0bI0PWe8ptfF-131" value="" style="group" parent="PMnQvKvV0bI0PWe8ptfF-37" vertex="1" connectable="0">
          <mxGeometry x="393" y="315" width="430" height="58" as="geometry" />
        </mxCell>
        <mxCell id="PMnQvKvV0bI0PWe8ptfF-132" value="Nourished well" style="html=1;fillColor=none;strokeColor=none;fontSize=15;align=left;fontColor=#000000;whiteSpace=wrap;shadow=0;sketch=0;" parent="PMnQvKvV0bI0PWe8ptfF-131" vertex="1">
          <mxGeometry width="130" height="20" as="geometry" />
        </mxCell>
        <mxCell id="PMnQvKvV0bI0PWe8ptfF-133" value="" style="shape=line;strokeColor=#596780;html=1;shadow=0;sketch=0;" parent="PMnQvKvV0bI0PWe8ptfF-131" vertex="1">
          <mxGeometry y="20" width="320" height="10" as="geometry" />
        </mxCell>
        <mxCell id="PMnQvKvV0bI0PWe8ptfF-134" value="regular meals, no skipped meals, only healthy food" style="html=1;fillColor=none;strokeColor=none;fontSize=12;align=left;fontColor=#000000;whiteSpace=wrap;verticalAlign=top;shadow=0;sketch=0;" parent="PMnQvKvV0bI0PWe8ptfF-131" vertex="1">
          <mxGeometry y="26" width="317" height="24" as="geometry" />
        </mxCell>
        <mxCell id="PMnQvKvV0bI0PWe8ptfF-135" value="" style="group" parent="PMnQvKvV0bI0PWe8ptfF-37" vertex="1" connectable="0">
          <mxGeometry x="393" y="386" width="320" height="50" as="geometry" />
        </mxCell>
        <mxCell id="PMnQvKvV0bI0PWe8ptfF-136" value="Hydrated well" style="html=1;fillColor=none;strokeColor=none;fontSize=15;align=left;fontColor=#000000;whiteSpace=wrap;shadow=0;sketch=0;" parent="PMnQvKvV0bI0PWe8ptfF-135" vertex="1">
          <mxGeometry width="130" height="20" as="geometry" />
        </mxCell>
        <mxCell id="PMnQvKvV0bI0PWe8ptfF-137" value="" style="shape=line;strokeColor=#596780;html=1;shadow=0;sketch=0;" parent="PMnQvKvV0bI0PWe8ptfF-135" vertex="1">
          <mxGeometry y="20" width="320" height="10" as="geometry" />
        </mxCell>
        <mxCell id="PMnQvKvV0bI0PWe8ptfF-138" value="8 glasses = 2 L" style="html=1;fillColor=none;strokeColor=none;fontSize=12;align=left;fontColor=#000000;whiteSpace=wrap;verticalAlign=top;shadow=0;sketch=0;" parent="PMnQvKvV0bI0PWe8ptfF-135" vertex="1">
          <mxGeometry y="26" width="317" height="24" as="geometry" />
        </mxCell>
        <mxCell id="PMnQvKvV0bI0PWe8ptfF-152" value="" style="group" parent="PMnQvKvV0bI0PWe8ptfF-37" vertex="1" connectable="0">
          <mxGeometry x="393" y="447" width="320" height="80" as="geometry" />
        </mxCell>
        <mxCell id="PMnQvKvV0bI0PWe8ptfF-153" value="Activities" style="html=1;fillColor=none;strokeColor=none;fontSize=15;align=left;fontColor=#000000;whiteSpace=wrap;shadow=0;sketch=0;" parent="PMnQvKvV0bI0PWe8ptfF-152" vertex="1">
          <mxGeometry width="130" height="20" as="geometry" />
        </mxCell>
        <mxCell id="PMnQvKvV0bI0PWe8ptfF-154" value="" style="shape=line;strokeColor=#596780;html=1;shadow=0;sketch=0;" parent="PMnQvKvV0bI0PWe8ptfF-152" vertex="1">
          <mxGeometry y="20" width="320" height="10" as="geometry" />
        </mxCell>
        <mxCell id="PMnQvKvV0bI0PWe8ptfF-161" value="" style="group" parent="PMnQvKvV0bI0PWe8ptfF-37" vertex="1" connectable="0">
          <mxGeometry x="392" y="249" width="320" height="50" as="geometry" />
        </mxCell>
        <mxCell id="PMnQvKvV0bI0PWe8ptfF-162" value="Slept well" style="html=1;fillColor=none;strokeColor=none;fontSize=15;align=left;fontColor=#000000;whiteSpace=wrap;shadow=0;sketch=0;" parent="PMnQvKvV0bI0PWe8ptfF-161" vertex="1">
          <mxGeometry width="130" height="20" as="geometry" />
        </mxCell>
        <mxCell id="PMnQvKvV0bI0PWe8ptfF-163" value="" style="shape=line;strokeColor=#596780;html=1;shadow=0;sketch=0;" parent="PMnQvKvV0bI0PWe8ptfF-161" vertex="1">
          <mxGeometry y="20" width="320" height="10" as="geometry" />
        </mxCell>
        <mxCell id="PMnQvKvV0bI0PWe8ptfF-164" value="8H, well-rested, uninterrupted, no snoozing, no day-nap" style="html=1;fillColor=none;strokeColor=none;fontSize=12;align=left;fontColor=#000000;whiteSpace=wrap;verticalAlign=top;shadow=0;sketch=0;" parent="PMnQvKvV0bI0PWe8ptfF-161" vertex="1">
          <mxGeometry y="26" width="317" height="24" as="geometry" />
        </mxCell>
        <mxCell id="PMnQvKvV0bI0PWe8ptfF-263" value="" style="endArrow=none;dashed=1;html=1;entryX=1;entryY=0.5;entryDx=0;entryDy=0;exitX=0;exitY=0.5;exitDx=0;exitDy=0;" parent="PMnQvKvV0bI0PWe8ptfF-37" edge="1">
          <mxGeometry width="50" height="50" relative="1" as="geometry">
            <mxPoint x="470" y="2280" as="sourcePoint" />
            <mxPoint x="527" y="2280" as="targetPoint" />
            <Array as="points" />
          </mxGeometry>
        </mxCell>
        <mxCell id="PMnQvKvV0bI0PWe8ptfF-270" value="" style="group;dashed=1;dashPattern=1 1;" parent="PMnQvKvV0bI0PWe8ptfF-37" vertex="1" connectable="0">
          <mxGeometry x="393" y="480" width="322.8333333333333" height="54" as="geometry" />
        </mxCell>
        <mxCell id="PMnQvKvV0bI0PWe8ptfF-179" value="&lt;font style=&quot;font-size: 11px&quot;&gt;work&lt;br&gt;&lt;br&gt;8H&lt;/font&gt;" style="rounded=0;whiteSpace=wrap;html=1;shadow=0;sketch=0;strokeColor=#000000;dashed=1;dashPattern=1 1;" parent="PMnQvKvV0bI0PWe8ptfF-270" vertex="1">
          <mxGeometry width="52.833333333333336" height="54" as="geometry" />
        </mxCell>
        <mxCell id="PMnQvKvV0bI0PWe8ptfF-269" value="" style="group" parent="PMnQvKvV0bI0PWe8ptfF-270" vertex="1" connectable="0">
          <mxGeometry x="52.833333333333336" width="270" height="54" as="geometry" />
        </mxCell>
        <mxCell id="PMnQvKvV0bI0PWe8ptfF-264" value="&lt;font style=&quot;font-size: 11px&quot;&gt;sport&lt;br&gt;&lt;br&gt;8H&lt;/font&gt;" style="rounded=0;whiteSpace=wrap;html=1;shadow=0;sketch=0;strokeColor=#000000;dashed=1;dashPattern=1 1;" parent="PMnQvKvV0bI0PWe8ptfF-269" vertex="1">
          <mxGeometry width="52.833333333333336" height="54" as="geometry" />
        </mxCell>
        <mxCell id="PMnQvKvV0bI0PWe8ptfF-265" value="&lt;font style=&quot;font-size: 11px&quot;&gt;reading&lt;br&gt;&lt;br&gt;8H&lt;/font&gt;" style="rounded=0;whiteSpace=wrap;html=1;shadow=0;sketch=0;strokeColor=#000000;dashed=1;dashPattern=1 1;" parent="PMnQvKvV0bI0PWe8ptfF-269" vertex="1">
          <mxGeometry x="52.833333333333336" width="52.833333333333336" height="54" as="geometry" />
        </mxCell>
        <mxCell id="PMnQvKvV0bI0PWe8ptfF-266" value="&lt;font style=&quot;font-size: 11px&quot;&gt;family&lt;br&gt;&lt;br&gt;8H&lt;/font&gt;" style="rounded=0;whiteSpace=wrap;html=1;shadow=0;sketch=0;strokeColor=#000000;dashed=1;dashPattern=1 1;" parent="PMnQvKvV0bI0PWe8ptfF-269" vertex="1">
          <mxGeometry x="105.66666666666667" width="52.833333333333336" height="54" as="geometry" />
        </mxCell>
        <mxCell id="PMnQvKvV0bI0PWe8ptfF-267" value="&lt;font style=&quot;font-size: 11px&quot;&gt;friends&lt;br&gt;&lt;br&gt;8H&lt;/font&gt;" style="rounded=0;whiteSpace=wrap;html=1;shadow=0;sketch=0;strokeColor=#000000;dashed=1;dashPattern=1 1;" parent="PMnQvKvV0bI0PWe8ptfF-269" vertex="1">
          <mxGeometry x="158.5" width="51.5" height="54" as="geometry" />
        </mxCell>
        <mxCell id="PMnQvKvV0bI0PWe8ptfF-268" value="&lt;font style=&quot;font-size: 11px&quot;&gt;&lt;font style=&quot;font-size: 11px&quot;&gt;daily tasks&lt;/font&gt;&lt;br&gt;&lt;br&gt;8H&lt;/font&gt;" style="rounded=0;whiteSpace=wrap;html=1;shadow=0;sketch=0;strokeColor=#000000;dashed=1;dashPattern=1 1;" parent="PMnQvKvV0bI0PWe8ptfF-37" vertex="1">
          <mxGeometry x="654.3333333333334" y="480" width="58.67" height="54" as="geometry" />
        </mxCell>
        <mxCell id="PMnQvKvV0bI0PWe8ptfF-181" value="" style="endArrow=none;dashed=1;html=1;entryX=1;entryY=0.5;entryDx=0;entryDy=0;exitX=0;exitY=0.5;exitDx=0;exitDy=0;dashPattern=1 1;" parent="PMnQvKvV0bI0PWe8ptfF-37" edge="1">
          <mxGeometry width="50" height="50" relative="1" as="geometry">
            <mxPoint x="392.9999999999998" y="508.00000000000045" as="sourcePoint" />
            <mxPoint x="713.0033333333336" y="510" as="targetPoint" />
            <Array as="points" />
          </mxGeometry>
        </mxCell>
        <mxCell id="PMnQvKvV0bI0PWe8ptfF-796" value="" style="group" parent="PMnQvKvV0bI0PWe8ptfF-37" vertex="1" connectable="0">
          <mxGeometry y="117" width="820" height="40" as="geometry" />
        </mxCell>
        <mxCell id="PMnQvKvV0bI0PWe8ptfF-781" value="START" style="fillColor=none;fontSize=14;shadow=0;dashed=1;dashPattern=1 1;sketch=0;align=center;rounded=1;" parent="PMnQvKvV0bI0PWe8ptfF-796" vertex="1">
          <mxGeometry x="12.947368421052632" y="9" width="86.31578947368422" height="30" as="geometry" />
        </mxCell>
        <mxCell id="PMnQvKvV0bI0PWe8ptfF-782" value="QUIZ" style="fillColor=none;fontSize=14;shadow=0;dashed=1;dashPattern=1 1;sketch=0;align=center;rounded=1;" parent="PMnQvKvV0bI0PWe8ptfF-796" vertex="1">
          <mxGeometry x="99.26315789473685" y="9" width="64.73684210526316" height="30" as="geometry" />
        </mxCell>
        <mxCell id="PMnQvKvV0bI0PWe8ptfF-783" value="DAY " style="fillColor=#f5f5f5;strokeColor=#666666;fontSize=14;shadow=0;dashed=1;dashPattern=1 1;sketch=0;align=center;fontStyle=1;fontColor=#333333;rounded=1;" parent="PMnQvKvV0bI0PWe8ptfF-796" vertex="1">
          <mxGeometry x="164" y="9" width="64.73684210526316" height="30" as="geometry" />
        </mxCell>
        <mxCell id="PMnQvKvV0bI0PWe8ptfF-784" value="ALL DATA" style="fillColor=none;fontSize=14;shadow=0;dashed=1;dashPattern=1 1;sketch=0;align=center;rounded=1;" parent="PMnQvKvV0bI0PWe8ptfF-796" vertex="1">
          <mxGeometry x="228.73684210526315" y="9" width="86.31578947368422" height="30" as="geometry" />
        </mxCell>
        <mxCell id="PMnQvKvV0bI0PWe8ptfF-787" value="" style="rounded=0;whiteSpace=wrap;html=1;shadow=0;dashed=1;dashPattern=1 1;sketch=0;strokeColor=#000000;fillColor=none;gradientColor=#ffffff;fontSize=12;align=center;" parent="PMnQvKvV0bI0PWe8ptfF-796" vertex="1">
          <mxGeometry width="820" height="40" as="geometry" />
        </mxCell>
        <mxCell id="PMnQvKvV0bI0PWe8ptfF-276" value="" style="shape=image;html=1;verticalAlign=top;verticalLabelPosition=bottom;labelBackgroundColor=#ffffff;imageAspect=0;aspect=fixed;image=https://cdn0.iconfinder.com/data/icons/super-mono-basic/blue/toggle-down-alt_basic_blue.png;shadow=0;dashed=1;dashPattern=1 1;sketch=0;strokeColor=#000000;" parent="1" vertex="1">
          <mxGeometry x="3100" y="1630" width="48" height="48" as="geometry" />
        </mxCell>
        <mxCell id="PMnQvKvV0bI0PWe8ptfF-279" value="" style="strokeWidth=1;shadow=0;dashed=0;align=center;html=1;shape=mxgraph.mockup.containers.browserWindow;rSize=0;strokeColor=#666666;strokeColor2=#008cff;strokeColor3=#c4c4c4;mainText=,;recursiveResize=0;container=0;" parent="1" vertex="1">
          <mxGeometry x="896" y="1754" width="824" height="572" as="geometry" />
        </mxCell>
        <mxCell id="PMnQvKvV0bI0PWe8ptfF-357" value="" style="endArrow=none;dashed=1;html=1;entryX=1;entryY=0.5;entryDx=0;entryDy=0;exitX=0;exitY=0.5;exitDx=0;exitDy=0;" parent="1" edge="1">
          <mxGeometry width="50" height="50" relative="1" as="geometry">
            <mxPoint x="1360" y="4034" as="sourcePoint" />
            <mxPoint x="1417" y="4034" as="targetPoint" />
            <Array as="points" />
          </mxGeometry>
        </mxCell>
        <mxCell id="PMnQvKvV0bI0PWe8ptfF-843" value="" style="group" parent="1" vertex="1" connectable="0">
          <mxGeometry x="894" y="1870" width="826" height="40" as="geometry" />
        </mxCell>
        <mxCell id="PMnQvKvV0bI0PWe8ptfF-798" value="START" style="fillColor=none;fontSize=14;shadow=0;dashed=1;dashPattern=1 1;sketch=0;align=center;rounded=1;" parent="PMnQvKvV0bI0PWe8ptfF-843" vertex="1">
          <mxGeometry x="12.498684210526315" y="10" width="86.94736842105263" height="30" as="geometry" />
        </mxCell>
        <mxCell id="PMnQvKvV0bI0PWe8ptfF-799" value="QUIZ" style="fillColor=none;fontSize=14;shadow=0;dashed=1;dashPattern=1 1;sketch=0;align=center;rounded=1;" parent="PMnQvKvV0bI0PWe8ptfF-843" vertex="1">
          <mxGeometry x="99.44605263157894" y="10" width="65.21052631578947" height="30" as="geometry" />
        </mxCell>
        <mxCell id="PMnQvKvV0bI0PWe8ptfF-800" value="DAY " style="strokeColor=#666666;fontSize=14;shadow=0;dashed=1;dashPattern=1 1;sketch=0;align=center;fontStyle=0;fontColor=#333333;rounded=1;fillColor=none;" parent="PMnQvKvV0bI0PWe8ptfF-843" vertex="1">
          <mxGeometry x="164.65657894736842" y="10" width="65.21052631578947" height="30" as="geometry" />
        </mxCell>
        <mxCell id="PMnQvKvV0bI0PWe8ptfF-801" value="ALL DATA" style="fontSize=14;shadow=0;dashed=1;dashPattern=1 1;sketch=0;align=center;rounded=1;fontStyle=1;fillColor=#E6E6E6;" parent="PMnQvKvV0bI0PWe8ptfF-843" vertex="1">
          <mxGeometry x="229.86710526315787" y="10" width="86.94736842105263" height="30" as="geometry" />
        </mxCell>
        <mxCell id="PMnQvKvV0bI0PWe8ptfF-841" value="" style="rounded=0;whiteSpace=wrap;html=1;shadow=0;dashed=1;dashPattern=1 1;sketch=0;strokeColor=#000000;fillColor=none;gradientColor=#ffffff;fontSize=12;align=center;" parent="PMnQvKvV0bI0PWe8ptfF-843" vertex="1">
          <mxGeometry x="2.1736842105263157" width="826" height="40" as="geometry" />
        </mxCell>
        <mxCell id="PMnQvKvV0bI0PWe8ptfF-868" value="" style="group" parent="1" vertex="1" connectable="0">
          <mxGeometry x="918.25" y="1766" width="651.75" height="524" as="geometry" />
        </mxCell>
        <mxCell id="PMnQvKvV0bI0PWe8ptfF-280" value="Page 1" style="strokeWidth=1;shadow=0;dashed=0;align=center;html=1;shape=mxgraph.mockup.containers.anchor;fontSize=17;fontColor=#666666;align=left;" parent="PMnQvKvV0bI0PWe8ptfF-868" vertex="1">
          <mxGeometry x="31.75" width="110" height="26" as="geometry" />
        </mxCell>
        <mxCell id="PMnQvKvV0bI0PWe8ptfF-281" value="https://www.draw.io" style="strokeWidth=1;shadow=0;dashed=0;align=center;html=1;shape=mxgraph.mockup.containers.anchor;rSize=0;fontSize=17;fontColor=#666666;align=left;" parent="PMnQvKvV0bI0PWe8ptfF-868" vertex="1">
          <mxGeometry x="101.75" y="48" width="250" height="26" as="geometry" />
        </mxCell>
        <mxCell id="PMnQvKvV0bI0PWe8ptfF-282" value="&lt;h3&gt;&lt;font face=&quot;arial, sans-serif&quot; color=&quot;#4f4f4f&quot;&gt;&lt;span style=&quot;font-size: 49px ; background-color: rgb(255 , 255 , 255)&quot;&gt;All data overview&lt;/span&gt;&lt;/font&gt;&lt;/h3&gt;" style="strokeWidth=1;shadow=0;align=center;html=1;shape=mxgraph.mockup.text.alphanumeric;linkText=;html=1;fontStyle=0;fontSize=17;strokeColor=none;fillColor=none;sketch=0;opacity=50;" parent="PMnQvKvV0bI0PWe8ptfF-868" vertex="1">
          <mxGeometry y="152" width="453.5" height="50" as="geometry" />
        </mxCell>
        <mxCell id="PMnQvKvV0bI0PWe8ptfF-654" value="" style="rounded=0;whiteSpace=wrap;html=1;shadow=0;dashed=1;dashPattern=1 1;sketch=0;strokeColor=none;" parent="PMnQvKvV0bI0PWe8ptfF-868" vertex="1">
          <mxGeometry x="71.75" y="236" width="82.18666666666667" height="16" as="geometry" />
        </mxCell>
        <mxCell id="PMnQvKvV0bI0PWe8ptfF-655" value="" style="rounded=0;whiteSpace=wrap;html=1;shadow=0;dashed=1;dashPattern=1 1;sketch=0;gradientColor=#ffffff;gradientDirection=north;fillColor=none;strokeColor=none;" parent="PMnQvKvV0bI0PWe8ptfF-868" vertex="1">
          <mxGeometry x="71.75" y="252" width="82.18666666666667" height="16" as="geometry" />
        </mxCell>
        <mxCell id="PMnQvKvV0bI0PWe8ptfF-656" value="" style="rounded=0;whiteSpace=wrap;html=1;shadow=0;dashed=1;dashPattern=1 1;sketch=0;gradientColor=#ffffff;gradientDirection=north;fillColor=none;strokeColor=none;" parent="PMnQvKvV0bI0PWe8ptfF-868" vertex="1">
          <mxGeometry x="71.75" y="268" width="82.18666666666667" height="16" as="geometry" />
        </mxCell>
        <mxCell id="PMnQvKvV0bI0PWe8ptfF-657" value="" style="rounded=0;whiteSpace=wrap;html=1;shadow=0;dashed=1;dashPattern=1 1;sketch=0;strokeColor=none;" parent="PMnQvKvV0bI0PWe8ptfF-868" vertex="1">
          <mxGeometry x="71.75" y="220" width="82.18666666666667" height="16" as="geometry" />
        </mxCell>
        <mxCell id="PMnQvKvV0bI0PWe8ptfF-658" value="" style="rounded=0;whiteSpace=wrap;html=1;shadow=0;dashed=1;dashPattern=1 1;sketch=0;gradientColor=#ffffff;gradientDirection=north;fillColor=none;strokeColor=none;" parent="PMnQvKvV0bI0PWe8ptfF-868" vertex="1">
          <mxGeometry x="71.75" y="284" width="82.18666666666667" height="16" as="geometry" />
        </mxCell>
        <mxCell id="PMnQvKvV0bI0PWe8ptfF-681" value="" style="group" parent="PMnQvKvV0bI0PWe8ptfF-868" vertex="1" connectable="0">
          <mxGeometry x="83.34000000000015" y="238" width="52.41000000000008" height="11.670000000000073" as="geometry" />
        </mxCell>
        <mxCell id="PMnQvKvV0bI0PWe8ptfF-667" value="" style="verticalLabelPosition=bottom;verticalAlign=top;html=1;shape=mxgraph.basic.star;shadow=0;dashed=0;strokeWidth=1;fillColor=none;fontSize=17;" parent="PMnQvKvV0bI0PWe8ptfF-681" vertex="1">
          <mxGeometry x="28" width="10.41" height="11.67" as="geometry" />
        </mxCell>
        <mxCell id="PMnQvKvV0bI0PWe8ptfF-668" value="" style="verticalLabelPosition=bottom;verticalAlign=top;html=1;shape=mxgraph.basic.star;shadow=0;dashed=0;strokeWidth=1;fillColor=none;fontSize=17;" parent="PMnQvKvV0bI0PWe8ptfF-681" vertex="1">
          <mxGeometry x="42" width="10.41" height="11.67" as="geometry" />
        </mxCell>
        <mxCell id="PMnQvKvV0bI0PWe8ptfF-669" value="" style="verticalLabelPosition=bottom;verticalAlign=top;html=1;shape=mxgraph.basic.star;shadow=0;dashed=0;strokeWidth=1;fillColor=none;fontSize=17;" parent="PMnQvKvV0bI0PWe8ptfF-681" vertex="1">
          <mxGeometry x="14" width="10.41" height="11.67" as="geometry" />
        </mxCell>
        <mxCell id="PMnQvKvV0bI0PWe8ptfF-672" value="" style="verticalLabelPosition=bottom;verticalAlign=top;html=1;shape=mxgraph.basic.star;shadow=0;dashed=0;strokeWidth=1;fillColor=none;fontSize=17;" parent="PMnQvKvV0bI0PWe8ptfF-681" vertex="1">
          <mxGeometry width="10.41" height="11.67" as="geometry" />
        </mxCell>
        <mxCell id="PMnQvKvV0bI0PWe8ptfF-682" value="" style="group" parent="PMnQvKvV0bI0PWe8ptfF-868" vertex="1" connectable="0">
          <mxGeometry x="84.34000000000015" y="254" width="38.41000000000008" height="11.670000000000073" as="geometry" />
        </mxCell>
        <mxCell id="PMnQvKvV0bI0PWe8ptfF-664" value="" style="verticalLabelPosition=bottom;verticalAlign=top;html=1;shape=mxgraph.basic.star;shadow=0;dashed=0;strokeWidth=1;fillColor=none;fontSize=17;" parent="PMnQvKvV0bI0PWe8ptfF-682" vertex="1">
          <mxGeometry x="14" width="10.41" height="11.67" as="geometry" />
        </mxCell>
        <mxCell id="PMnQvKvV0bI0PWe8ptfF-665" value="" style="verticalLabelPosition=bottom;verticalAlign=top;html=1;shape=mxgraph.basic.star;shadow=0;dashed=0;strokeWidth=1;fillColor=none;fontSize=17;" parent="PMnQvKvV0bI0PWe8ptfF-682" vertex="1">
          <mxGeometry x="28" width="10.41" height="11.67" as="geometry" />
        </mxCell>
        <mxCell id="PMnQvKvV0bI0PWe8ptfF-666" value="" style="verticalLabelPosition=bottom;verticalAlign=top;html=1;shape=mxgraph.basic.star;shadow=0;dashed=0;strokeWidth=1;fillColor=none;fontSize=17;" parent="PMnQvKvV0bI0PWe8ptfF-682" vertex="1">
          <mxGeometry width="10.41" height="11.67" as="geometry" />
        </mxCell>
        <mxCell id="PMnQvKvV0bI0PWe8ptfF-832" value="" style="group" parent="PMnQvKvV0bI0PWe8ptfF-868" vertex="1" connectable="0">
          <mxGeometry x="71.75" y="213" width="580" height="311" as="geometry" />
        </mxCell>
        <mxCell id="PMnQvKvV0bI0PWe8ptfF-642" value="" style="group" parent="PMnQvKvV0bI0PWe8ptfF-832" vertex="1" connectable="0">
          <mxGeometry y="99" width="580" height="212" as="geometry" />
        </mxCell>
        <mxCell id="PMnQvKvV0bI0PWe8ptfF-619" value="" style="group;align=center;" parent="PMnQvKvV0bI0PWe8ptfF-642" vertex="1" connectable="0">
          <mxGeometry y="42" width="575.3036437246964" height="170" as="geometry" />
        </mxCell>
        <mxCell id="PMnQvKvV0bI0PWe8ptfF-466" value="" style="group" parent="PMnQvKvV0bI0PWe8ptfF-619" vertex="1" connectable="0">
          <mxGeometry width="82.1862348178139" height="170" as="geometry" />
        </mxCell>
        <mxCell id="PMnQvKvV0bI0PWe8ptfF-467" value="" style="group" parent="PMnQvKvV0bI0PWe8ptfF-466" vertex="1" connectable="0">
          <mxGeometry x="1.334784734383346e-13" width="82.18623481781377" height="170" as="geometry" />
        </mxCell>
        <mxCell id="PMnQvKvV0bI0PWe8ptfF-468" value="" style="group" parent="PMnQvKvV0bI0PWe8ptfF-467" vertex="1" connectable="0">
          <mxGeometry y="60" width="82.18623481781377" height="28.15" as="geometry" />
        </mxCell>
        <mxCell id="PMnQvKvV0bI0PWe8ptfF-469" value="&lt;div&gt;&lt;span style=&quot;font-size: 11px&quot;&gt;Hydration&lt;/span&gt;&lt;/div&gt;" style="rounded=0;whiteSpace=wrap;html=1;shadow=0;sketch=0;dashed=1;dashPattern=1 1;align=center;strokeColor=none;" parent="PMnQvKvV0bI0PWe8ptfF-468" vertex="1">
          <mxGeometry width="82.18623481781377" height="28.15" as="geometry" />
        </mxCell>
        <mxCell id="PMnQvKvV0bI0PWe8ptfF-470" value="&lt;div&gt;&lt;span style=&quot;font-size: 11px&quot;&gt;Nutrition&lt;/span&gt;&lt;/div&gt;" style="rounded=0;whiteSpace=wrap;html=1;shadow=0;sketch=0;dashed=1;dashPattern=1 1;align=center;strokeColor=none;" parent="PMnQvKvV0bI0PWe8ptfF-466" vertex="1">
          <mxGeometry x="1.334784734383346e-13" y="24" width="82.18623481781377" height="36" as="geometry" />
        </mxCell>
        <mxCell id="PMnQvKvV0bI0PWe8ptfF-471" value="&lt;div&gt;&lt;span style=&quot;font-size: 11px&quot;&gt;Sleep&lt;/span&gt;&lt;/div&gt;" style="rounded=0;whiteSpace=wrap;html=1;shadow=0;sketch=0;align=center;dashed=1;dashPattern=1 1;strokeColor=none;" parent="PMnQvKvV0bI0PWe8ptfF-466" vertex="1">
          <mxGeometry width="82.18623481781377" height="24" as="geometry" />
        </mxCell>
        <mxCell id="PMnQvKvV0bI0PWe8ptfF-472" value="&lt;span style=&quot;font-size: 11px&quot;&gt;Demanding activities&lt;/span&gt;" style="rounded=0;whiteSpace=wrap;html=1;shadow=0;sketch=0;dashed=1;dashPattern=1 1;align=center;strokeColor=none;" parent="PMnQvKvV0bI0PWe8ptfF-466" vertex="1">
          <mxGeometry x="1.334784734383346e-13" y="90" width="82.18623481781377" height="38" as="geometry" />
        </mxCell>
        <mxCell id="PMnQvKvV0bI0PWe8ptfF-473" value="&lt;span style=&quot;font-size: 11px&quot;&gt;Restorative activities&lt;/span&gt;" style="rounded=0;whiteSpace=wrap;html=1;shadow=0;sketch=0;dashed=1;dashPattern=1 1;align=center;strokeColor=none;" parent="PMnQvKvV0bI0PWe8ptfF-466" vertex="1">
          <mxGeometry y="128" width="82.18623481781377" height="42" as="geometry" />
        </mxCell>
        <mxCell id="PMnQvKvV0bI0PWe8ptfF-569" value="" style="group" parent="PMnQvKvV0bI0PWe8ptfF-619" vertex="1" connectable="0">
          <mxGeometry x="82.18623481781377" width="82.1862348178139" height="170" as="geometry" />
        </mxCell>
        <mxCell id="PMnQvKvV0bI0PWe8ptfF-570" value="" style="group" parent="PMnQvKvV0bI0PWe8ptfF-569" vertex="1" connectable="0">
          <mxGeometry x="1.334784734383346e-13" width="82.18623481781377" height="170" as="geometry" />
        </mxCell>
        <mxCell id="PMnQvKvV0bI0PWe8ptfF-571" value="" style="group" parent="PMnQvKvV0bI0PWe8ptfF-570" vertex="1" connectable="0">
          <mxGeometry y="60" width="82.18623481781377" height="28.15" as="geometry" />
        </mxCell>
        <mxCell id="PMnQvKvV0bI0PWe8ptfF-572" value="2" style="rounded=0;whiteSpace=wrap;html=1;shadow=0;sketch=0;dashed=1;dashPattern=1 1;align=center;" parent="PMnQvKvV0bI0PWe8ptfF-571" vertex="1">
          <mxGeometry width="82.18623481781377" height="28.15" as="geometry" />
        </mxCell>
        <mxCell id="PMnQvKvV0bI0PWe8ptfF-573" value="4" style="rounded=0;whiteSpace=wrap;html=1;shadow=0;sketch=0;dashed=1;dashPattern=1 1;align=center;" parent="PMnQvKvV0bI0PWe8ptfF-569" vertex="1">
          <mxGeometry x="1.334784734383346e-13" y="24" width="82.18623481781377" height="36" as="geometry" />
        </mxCell>
        <mxCell id="PMnQvKvV0bI0PWe8ptfF-574" value="2" style="rounded=0;whiteSpace=wrap;html=1;shadow=0;sketch=0;align=center;dashed=1;dashPattern=1 1;" parent="PMnQvKvV0bI0PWe8ptfF-569" vertex="1">
          <mxGeometry width="82.18623481781377" height="24" as="geometry" />
        </mxCell>
        <mxCell id="PMnQvKvV0bI0PWe8ptfF-575" value="" style="rounded=0;whiteSpace=wrap;html=1;shadow=0;sketch=0;dashed=1;dashPattern=1 1;align=center;" parent="PMnQvKvV0bI0PWe8ptfF-569" vertex="1">
          <mxGeometry x="1.334784734383346e-13" y="90" width="82.18623481781377" height="38" as="geometry" />
        </mxCell>
        <mxCell id="PMnQvKvV0bI0PWe8ptfF-576" value="" style="rounded=0;whiteSpace=wrap;html=1;shadow=0;sketch=0;dashed=1;dashPattern=1 1;align=center;" parent="PMnQvKvV0bI0PWe8ptfF-569" vertex="1">
          <mxGeometry y="128" width="82.18623481781377" height="42" as="geometry" />
        </mxCell>
        <mxCell id="PMnQvKvV0bI0PWe8ptfF-577" value="" style="group" parent="PMnQvKvV0bI0PWe8ptfF-619" vertex="1" connectable="0">
          <mxGeometry x="164.37246963562754" width="82.1862348178139" height="170" as="geometry" />
        </mxCell>
        <mxCell id="PMnQvKvV0bI0PWe8ptfF-578" value="" style="group" parent="PMnQvKvV0bI0PWe8ptfF-577" vertex="1" connectable="0">
          <mxGeometry x="1.334784734383346e-13" width="82.18623481781377" height="170" as="geometry" />
        </mxCell>
        <mxCell id="PMnQvKvV0bI0PWe8ptfF-579" value="" style="group" parent="PMnQvKvV0bI0PWe8ptfF-578" vertex="1" connectable="0">
          <mxGeometry y="60" width="82.18623481781377" height="28.15" as="geometry" />
        </mxCell>
        <mxCell id="PMnQvKvV0bI0PWe8ptfF-580" value="4" style="rounded=0;whiteSpace=wrap;html=1;shadow=0;sketch=0;dashed=1;dashPattern=1 1;align=center;" parent="PMnQvKvV0bI0PWe8ptfF-579" vertex="1">
          <mxGeometry width="82.18623481781377" height="28.15" as="geometry" />
        </mxCell>
        <mxCell id="PMnQvKvV0bI0PWe8ptfF-581" value="5" style="rounded=0;whiteSpace=wrap;html=1;shadow=0;sketch=0;dashed=1;dashPattern=1 1;align=center;" parent="PMnQvKvV0bI0PWe8ptfF-577" vertex="1">
          <mxGeometry x="1.334784734383346e-13" y="24" width="82.18623481781377" height="36" as="geometry" />
        </mxCell>
        <mxCell id="PMnQvKvV0bI0PWe8ptfF-582" value="5" style="rounded=0;whiteSpace=wrap;html=1;shadow=0;sketch=0;align=center;dashed=1;dashPattern=1 1;" parent="PMnQvKvV0bI0PWe8ptfF-577" vertex="1">
          <mxGeometry width="82.18623481781377" height="24" as="geometry" />
        </mxCell>
        <mxCell id="PMnQvKvV0bI0PWe8ptfF-583" value="" style="rounded=0;whiteSpace=wrap;html=1;shadow=0;sketch=0;dashed=1;dashPattern=1 1;align=center;" parent="PMnQvKvV0bI0PWe8ptfF-577" vertex="1">
          <mxGeometry x="1.334784734383346e-13" y="90" width="82.18623481781377" height="38" as="geometry" />
        </mxCell>
        <mxCell id="PMnQvKvV0bI0PWe8ptfF-584" value="" style="rounded=0;whiteSpace=wrap;html=1;shadow=0;sketch=0;dashed=1;dashPattern=1 1;align=center;" parent="PMnQvKvV0bI0PWe8ptfF-577" vertex="1">
          <mxGeometry y="128" width="82.18623481781377" height="42" as="geometry" />
        </mxCell>
        <mxCell id="PMnQvKvV0bI0PWe8ptfF-585" value="" style="group" parent="PMnQvKvV0bI0PWe8ptfF-619" vertex="1" connectable="0">
          <mxGeometry x="246.5587044534413" width="82.1862348178139" height="170" as="geometry" />
        </mxCell>
        <mxCell id="PMnQvKvV0bI0PWe8ptfF-586" value="" style="group" parent="PMnQvKvV0bI0PWe8ptfF-585" vertex="1" connectable="0">
          <mxGeometry x="1.334784734383346e-13" width="82.18623481781377" height="170" as="geometry" />
        </mxCell>
        <mxCell id="PMnQvKvV0bI0PWe8ptfF-587" value="" style="group" parent="PMnQvKvV0bI0PWe8ptfF-586" vertex="1" connectable="0">
          <mxGeometry y="60" width="82.18623481781377" height="28.15" as="geometry" />
        </mxCell>
        <mxCell id="PMnQvKvV0bI0PWe8ptfF-588" value="2" style="rounded=0;whiteSpace=wrap;html=1;shadow=0;sketch=0;dashed=1;dashPattern=1 1;align=center;" parent="PMnQvKvV0bI0PWe8ptfF-587" vertex="1">
          <mxGeometry width="82.18623481781377" height="28.15" as="geometry" />
        </mxCell>
        <mxCell id="PMnQvKvV0bI0PWe8ptfF-589" value="3" style="rounded=0;whiteSpace=wrap;html=1;shadow=0;sketch=0;dashed=1;dashPattern=1 1;align=center;" parent="PMnQvKvV0bI0PWe8ptfF-585" vertex="1">
          <mxGeometry x="1.334784734383346e-13" y="24" width="82.18623481781377" height="36" as="geometry" />
        </mxCell>
        <mxCell id="PMnQvKvV0bI0PWe8ptfF-590" value="1" style="rounded=0;whiteSpace=wrap;html=1;shadow=0;sketch=0;align=center;dashed=1;dashPattern=1 1;" parent="PMnQvKvV0bI0PWe8ptfF-585" vertex="1">
          <mxGeometry width="82.18623481781377" height="24" as="geometry" />
        </mxCell>
        <mxCell id="PMnQvKvV0bI0PWe8ptfF-591" value="" style="rounded=0;whiteSpace=wrap;html=1;shadow=0;sketch=0;dashed=1;dashPattern=1 1;align=left;" parent="PMnQvKvV0bI0PWe8ptfF-585" vertex="1">
          <mxGeometry x="1.334784734383346e-13" y="90" width="82.18623481781377" height="38" as="geometry" />
        </mxCell>
        <mxCell id="PMnQvKvV0bI0PWe8ptfF-592" value="" style="rounded=0;whiteSpace=wrap;html=1;shadow=0;sketch=0;dashed=1;dashPattern=1 1;align=left;" parent="PMnQvKvV0bI0PWe8ptfF-585" vertex="1">
          <mxGeometry y="128" width="82.18623481781377" height="42" as="geometry" />
        </mxCell>
        <mxCell id="PMnQvKvV0bI0PWe8ptfF-594" value="" style="group" parent="PMnQvKvV0bI0PWe8ptfF-619" vertex="1" connectable="0">
          <mxGeometry x="328.7449392712551" width="82.1862348178139" height="170" as="geometry" />
        </mxCell>
        <mxCell id="PMnQvKvV0bI0PWe8ptfF-595" value="" style="group" parent="PMnQvKvV0bI0PWe8ptfF-594" vertex="1" connectable="0">
          <mxGeometry x="1.334784734383346e-13" width="82.18623481781377" height="170" as="geometry" />
        </mxCell>
        <mxCell id="PMnQvKvV0bI0PWe8ptfF-596" value="" style="group" parent="PMnQvKvV0bI0PWe8ptfF-595" vertex="1" connectable="0">
          <mxGeometry y="60" width="82.18623481781377" height="28.15" as="geometry" />
        </mxCell>
        <mxCell id="PMnQvKvV0bI0PWe8ptfF-597" value="4" style="rounded=0;whiteSpace=wrap;html=1;shadow=0;sketch=0;dashed=1;dashPattern=1 1;align=center;" parent="PMnQvKvV0bI0PWe8ptfF-596" vertex="1">
          <mxGeometry width="82.18623481781377" height="28.15" as="geometry" />
        </mxCell>
        <mxCell id="PMnQvKvV0bI0PWe8ptfF-598" value="4" style="rounded=0;whiteSpace=wrap;html=1;shadow=0;sketch=0;dashed=1;dashPattern=1 1;align=center;" parent="PMnQvKvV0bI0PWe8ptfF-594" vertex="1">
          <mxGeometry x="1.334784734383346e-13" y="24" width="82.18623481781377" height="36" as="geometry" />
        </mxCell>
        <mxCell id="PMnQvKvV0bI0PWe8ptfF-599" value="4" style="rounded=0;whiteSpace=wrap;html=1;shadow=0;sketch=0;align=center;dashed=1;dashPattern=1 1;" parent="PMnQvKvV0bI0PWe8ptfF-594" vertex="1">
          <mxGeometry width="82.18623481781377" height="24" as="geometry" />
        </mxCell>
        <mxCell id="PMnQvKvV0bI0PWe8ptfF-600" value="" style="rounded=0;whiteSpace=wrap;html=1;shadow=0;sketch=0;dashed=1;dashPattern=1 1;align=left;" parent="PMnQvKvV0bI0PWe8ptfF-594" vertex="1">
          <mxGeometry x="1.334784734383346e-13" y="90" width="82.18623481781377" height="38" as="geometry" />
        </mxCell>
        <mxCell id="PMnQvKvV0bI0PWe8ptfF-601" value="" style="rounded=0;whiteSpace=wrap;html=1;shadow=0;sketch=0;dashed=1;dashPattern=1 1;align=left;" parent="PMnQvKvV0bI0PWe8ptfF-594" vertex="1">
          <mxGeometry y="128" width="82.18623481781377" height="42" as="geometry" />
        </mxCell>
        <mxCell id="PMnQvKvV0bI0PWe8ptfF-602" value="" style="group" parent="PMnQvKvV0bI0PWe8ptfF-619" vertex="1" connectable="0">
          <mxGeometry x="410.9311740890688" width="82.1862348178139" height="170" as="geometry" />
        </mxCell>
        <mxCell id="PMnQvKvV0bI0PWe8ptfF-603" value="" style="group" parent="PMnQvKvV0bI0PWe8ptfF-602" vertex="1" connectable="0">
          <mxGeometry x="1.334784734383346e-13" width="82.18623481781377" height="170" as="geometry" />
        </mxCell>
        <mxCell id="PMnQvKvV0bI0PWe8ptfF-604" value="" style="group" parent="PMnQvKvV0bI0PWe8ptfF-603" vertex="1" connectable="0">
          <mxGeometry y="60" width="82.18623481781377" height="28.15" as="geometry" />
        </mxCell>
        <mxCell id="PMnQvKvV0bI0PWe8ptfF-605" value="5" style="rounded=0;whiteSpace=wrap;html=1;shadow=0;sketch=0;dashed=1;dashPattern=1 1;align=center;" parent="PMnQvKvV0bI0PWe8ptfF-604" vertex="1">
          <mxGeometry width="82.18623481781377" height="28.15" as="geometry" />
        </mxCell>
        <mxCell id="PMnQvKvV0bI0PWe8ptfF-606" value="5" style="rounded=0;whiteSpace=wrap;html=1;shadow=0;sketch=0;dashed=1;dashPattern=1 1;align=center;" parent="PMnQvKvV0bI0PWe8ptfF-602" vertex="1">
          <mxGeometry x="1.334784734383346e-13" y="24" width="82.18623481781377" height="36" as="geometry" />
        </mxCell>
        <mxCell id="PMnQvKvV0bI0PWe8ptfF-607" value="4" style="rounded=0;whiteSpace=wrap;html=1;shadow=0;sketch=0;align=center;dashed=1;dashPattern=1 1;" parent="PMnQvKvV0bI0PWe8ptfF-602" vertex="1">
          <mxGeometry width="82.18623481781377" height="24" as="geometry" />
        </mxCell>
        <mxCell id="PMnQvKvV0bI0PWe8ptfF-608" value="" style="rounded=0;whiteSpace=wrap;html=1;shadow=0;sketch=0;dashed=1;dashPattern=1 1;align=left;" parent="PMnQvKvV0bI0PWe8ptfF-602" vertex="1">
          <mxGeometry x="1.334784734383346e-13" y="90" width="82.18623481781377" height="38" as="geometry" />
        </mxCell>
        <mxCell id="PMnQvKvV0bI0PWe8ptfF-609" value="" style="rounded=0;whiteSpace=wrap;html=1;shadow=0;sketch=0;dashed=1;dashPattern=1 1;align=left;" parent="PMnQvKvV0bI0PWe8ptfF-602" vertex="1">
          <mxGeometry y="128" width="82.18623481781377" height="42" as="geometry" />
        </mxCell>
        <mxCell id="PMnQvKvV0bI0PWe8ptfF-610" value="" style="group" parent="PMnQvKvV0bI0PWe8ptfF-619" vertex="1" connectable="0">
          <mxGeometry x="493.1174089068826" width="82.1862348178139" height="170" as="geometry" />
        </mxCell>
        <mxCell id="PMnQvKvV0bI0PWe8ptfF-611" value="" style="group" parent="PMnQvKvV0bI0PWe8ptfF-610" vertex="1" connectable="0">
          <mxGeometry x="1.334784734383346e-13" width="82.18623481781377" height="170" as="geometry" />
        </mxCell>
        <mxCell id="PMnQvKvV0bI0PWe8ptfF-612" value="" style="group" parent="PMnQvKvV0bI0PWe8ptfF-611" vertex="1" connectable="0">
          <mxGeometry y="60" width="82.18623481781377" height="28.15" as="geometry" />
        </mxCell>
        <mxCell id="PMnQvKvV0bI0PWe8ptfF-613" value="3" style="rounded=0;whiteSpace=wrap;html=1;shadow=0;sketch=0;dashed=1;dashPattern=1 1;align=center;" parent="PMnQvKvV0bI0PWe8ptfF-612" vertex="1">
          <mxGeometry width="82.18623481781377" height="28.15" as="geometry" />
        </mxCell>
        <mxCell id="PMnQvKvV0bI0PWe8ptfF-614" value="4" style="rounded=0;whiteSpace=wrap;html=1;shadow=0;sketch=0;dashed=1;dashPattern=1 1;align=center;" parent="PMnQvKvV0bI0PWe8ptfF-610" vertex="1">
          <mxGeometry x="1.334784734383346e-13" y="24" width="82.18623481781377" height="36" as="geometry" />
        </mxCell>
        <mxCell id="PMnQvKvV0bI0PWe8ptfF-615" value="4" style="rounded=0;whiteSpace=wrap;html=1;shadow=0;sketch=0;align=center;dashed=1;dashPattern=1 1;" parent="PMnQvKvV0bI0PWe8ptfF-610" vertex="1">
          <mxGeometry width="82.18623481781377" height="24" as="geometry" />
        </mxCell>
        <mxCell id="PMnQvKvV0bI0PWe8ptfF-616" value="" style="rounded=0;whiteSpace=wrap;html=1;shadow=0;sketch=0;dashed=1;dashPattern=1 1;align=left;" parent="PMnQvKvV0bI0PWe8ptfF-610" vertex="1">
          <mxGeometry x="1.334784734383346e-13" y="90" width="82.18623481781377" height="38" as="geometry" />
        </mxCell>
        <mxCell id="PMnQvKvV0bI0PWe8ptfF-617" value="" style="rounded=0;whiteSpace=wrap;html=1;shadow=0;sketch=0;dashed=1;dashPattern=1 1;align=left;" parent="PMnQvKvV0bI0PWe8ptfF-610" vertex="1">
          <mxGeometry y="128" width="82.18623481781377" height="42" as="geometry" />
        </mxCell>
        <mxCell id="PMnQvKvV0bI0PWe8ptfF-630" value="" style="group" parent="PMnQvKvV0bI0PWe8ptfF-642" vertex="1" connectable="0">
          <mxGeometry y="18" width="575.3036437246964" height="24" as="geometry" />
        </mxCell>
        <mxCell id="PMnQvKvV0bI0PWe8ptfF-621" value="&lt;span style=&quot;font-size: 12px&quot;&gt;Week day&lt;/span&gt;" style="rounded=0;whiteSpace=wrap;html=1;shadow=0;sketch=0;align=center;fontSize=12;dashed=1;dashPattern=1 1;strokeColor=none;" parent="PMnQvKvV0bI0PWe8ptfF-630" vertex="1">
          <mxGeometry width="82.18623481781377" height="24" as="geometry" />
        </mxCell>
        <mxCell id="PMnQvKvV0bI0PWe8ptfF-622" value="Monday" style="rounded=0;whiteSpace=wrap;html=1;shadow=0;sketch=0;align=center;fontSize=12;dashed=1;dashPattern=1 1;" parent="PMnQvKvV0bI0PWe8ptfF-630" vertex="1">
          <mxGeometry x="82.18623481781377" width="82.18623481781377" height="24" as="geometry" />
        </mxCell>
        <mxCell id="PMnQvKvV0bI0PWe8ptfF-623" value="&lt;span style=&quot;font-size: 12px;&quot;&gt;Tusday&lt;/span&gt;" style="rounded=0;whiteSpace=wrap;html=1;shadow=0;sketch=0;align=center;fontSize=12;dashed=1;dashPattern=1 1;" parent="PMnQvKvV0bI0PWe8ptfF-630" vertex="1">
          <mxGeometry x="164.37246963562754" width="82.18623481781377" height="24" as="geometry" />
        </mxCell>
        <mxCell id="PMnQvKvV0bI0PWe8ptfF-624" value="Wednesday" style="rounded=0;whiteSpace=wrap;html=1;shadow=0;sketch=0;align=center;fontSize=12;dashed=1;dashPattern=1 1;" parent="PMnQvKvV0bI0PWe8ptfF-630" vertex="1">
          <mxGeometry x="246.5587044534413" width="82.18623481781377" height="24" as="geometry" />
        </mxCell>
        <mxCell id="PMnQvKvV0bI0PWe8ptfF-625" value="&lt;span style=&quot;font-size: 12px;&quot;&gt;Thursday&lt;/span&gt;" style="rounded=0;whiteSpace=wrap;html=1;shadow=0;sketch=0;align=center;fontSize=12;dashed=1;dashPattern=1 1;" parent="PMnQvKvV0bI0PWe8ptfF-630" vertex="1">
          <mxGeometry x="328.7449392712551" width="82.18623481781377" height="24" as="geometry" />
        </mxCell>
        <mxCell id="PMnQvKvV0bI0PWe8ptfF-626" value="&lt;span style=&quot;font-size: 12px;&quot;&gt;Friday&lt;/span&gt;" style="rounded=0;whiteSpace=wrap;html=1;shadow=0;sketch=0;align=center;fontSize=12;dashed=1;dashPattern=1 1;" parent="PMnQvKvV0bI0PWe8ptfF-630" vertex="1">
          <mxGeometry x="410.9311740890688" width="82.18623481781377" height="24" as="geometry" />
        </mxCell>
        <mxCell id="PMnQvKvV0bI0PWe8ptfF-627" value="&lt;span style=&quot;font-size: 12px;&quot;&gt;Saturday&lt;/span&gt;" style="rounded=0;whiteSpace=wrap;html=1;shadow=0;sketch=0;align=center;fontSize=12;dashed=1;dashPattern=1 1;" parent="PMnQvKvV0bI0PWe8ptfF-630" vertex="1">
          <mxGeometry x="493.1174089068826" width="82.18623481781377" height="24" as="geometry" />
        </mxCell>
        <mxCell id="PMnQvKvV0bI0PWe8ptfF-632" value="" style="group;" parent="PMnQvKvV0bI0PWe8ptfF-642" vertex="1" connectable="0">
          <mxGeometry width="580" height="20" as="geometry" />
        </mxCell>
        <mxCell id="PMnQvKvV0bI0PWe8ptfF-633" value="&lt;span style=&quot;color: rgba(0 , 0 , 0 , 0) ; font-family: monospace ; font-size: 0px&quot;&gt;%3CmxGraphModel%3E%3Croot%3E%3CmxCell%20id%3D%220%22%2F%3E%3CmxCell%20id%3D%221%22%20parent%3D%220%22%2F%3E%3CmxCell%20id%3D%222%22%20value%3D%22%22%20style%3D%22verticalLabelPosition%3Dbottom%3BverticalAlign%3Dtop%3Bhtml%3D1%3Bshape%3Dmxgraph.basic.star%3Bshadow%3D0%3Bdashed%3D0%3BstrokeWidth%3D1%3BfillColor%3Dnone%3BfontSize%3D17%3B%22%20vertex%3D%221%22%20parent%3D%221%22%3E%3CmxGeometry%20x%3D%22699.3691275167786%22%20y%3D%221935%22%20width%3D%2244.63087248322148%22%20height%3D%2236%22%20as%3D%22geometry%22%2F%3E%3C%2FmxCell%3E%3C%2Froot%3E%3C%2FmxGraphModel%3E&lt;/span&gt;" style="rounded=0;whiteSpace=wrap;html=1;shadow=0;sketch=0;align=center;fontSize=12;dashed=1;dashPattern=1 1;strokeColor=none;" parent="PMnQvKvV0bI0PWe8ptfF-632" vertex="1">
          <mxGeometry width="82.85714285714288" height="20" as="geometry" />
        </mxCell>
        <mxCell id="PMnQvKvV0bI0PWe8ptfF-634" value="3" style="rounded=0;whiteSpace=wrap;html=1;shadow=0;sketch=0;align=center;fontSize=12;dashed=1;dashPattern=1 1;" parent="PMnQvKvV0bI0PWe8ptfF-632" vertex="1">
          <mxGeometry x="82.85546558704452" width="81.517004048583" height="20" as="geometry" />
        </mxCell>
        <mxCell id="PMnQvKvV0bI0PWe8ptfF-635" value="&lt;span style=&quot;font-size: 12px&quot;&gt;5&lt;/span&gt;" style="rounded=0;whiteSpace=wrap;html=1;shadow=0;sketch=0;align=center;fontSize=12;dashed=1;dashPattern=1 1;" parent="PMnQvKvV0bI0PWe8ptfF-632" vertex="1">
          <mxGeometry x="164.37582417582422" width="82.85714285714288" height="20" as="geometry" />
        </mxCell>
        <mxCell id="PMnQvKvV0bI0PWe8ptfF-636" value="2" style="rounded=0;whiteSpace=wrap;html=1;shadow=0;sketch=0;align=center;fontSize=12;dashed=1;dashPattern=1 1;" parent="PMnQvKvV0bI0PWe8ptfF-632" vertex="1">
          <mxGeometry x="245.38964719491034" width="82.85714285714288" height="20" as="geometry" />
        </mxCell>
        <mxCell id="PMnQvKvV0bI0PWe8ptfF-637" value="&lt;span style=&quot;font-size: 12px&quot;&gt;4&lt;/span&gt;" style="rounded=0;whiteSpace=wrap;html=1;shadow=0;sketch=0;align=center;fontSize=12;dashed=1;dashPattern=1 1;" parent="PMnQvKvV0bI0PWe8ptfF-632" vertex="1">
          <mxGeometry x="328.24679005205326" width="82.85714285714288" height="20" as="geometry" />
        </mxCell>
        <mxCell id="PMnQvKvV0bI0PWe8ptfF-638" value="&lt;span style=&quot;font-size: 12px&quot;&gt;4&lt;/span&gt;" style="rounded=0;whiteSpace=wrap;html=1;shadow=0;sketch=0;align=center;fontSize=12;dashed=1;dashPattern=1 1;" parent="PMnQvKvV0bI0PWe8ptfF-632" vertex="1">
          <mxGeometry x="411.10393290919615" width="82.85714285714288" height="20" as="geometry" />
        </mxCell>
        <mxCell id="PMnQvKvV0bI0PWe8ptfF-639" value="&lt;span style=&quot;font-size: 12px&quot;&gt;4&lt;/span&gt;" style="rounded=0;whiteSpace=wrap;html=1;shadow=0;sketch=0;align=center;fontSize=12;dashed=1;dashPattern=1 1;" parent="PMnQvKvV0bI0PWe8ptfF-632" vertex="1">
          <mxGeometry x="493.9627530364373" width="81.34089068825911" height="20" as="geometry" />
        </mxCell>
        <mxCell id="PMnQvKvV0bI0PWe8ptfF-652" value="" style="group" parent="PMnQvKvV0bI0PWe8ptfF-832" vertex="1" connectable="0">
          <mxGeometry x="82.19000000000005" width="493.1199999999999" height="96" as="geometry" />
        </mxCell>
        <mxCell id="PMnQvKvV0bI0PWe8ptfF-537" value="" style="group;" parent="PMnQvKvV0bI0PWe8ptfF-652" vertex="1" connectable="0">
          <mxGeometry y="16" width="493.12" height="80" as="geometry" />
        </mxCell>
        <mxCell id="PMnQvKvV0bI0PWe8ptfF-502" value="" style="group" parent="PMnQvKvV0bI0PWe8ptfF-537" vertex="1" connectable="0">
          <mxGeometry width="82.18666666666667" height="80" as="geometry" />
        </mxCell>
        <mxCell id="PMnQvKvV0bI0PWe8ptfF-493" value="" style="rounded=0;whiteSpace=wrap;html=1;shadow=0;dashed=1;dashPattern=1 1;sketch=0;strokeColor=#000000;" parent="PMnQvKvV0bI0PWe8ptfF-502" vertex="1">
          <mxGeometry y="16" width="82.18666666666667" height="16" as="geometry" />
        </mxCell>
        <mxCell id="PMnQvKvV0bI0PWe8ptfF-494" value="" style="rounded=0;whiteSpace=wrap;html=1;shadow=0;dashed=1;dashPattern=1 1;sketch=0;fillColor=#CCCCCC;gradientColor=#ffffff;gradientDirection=north;" parent="PMnQvKvV0bI0PWe8ptfF-502" vertex="1">
          <mxGeometry y="32" width="82.18666666666667" height="16" as="geometry" />
        </mxCell>
        <mxCell id="PMnQvKvV0bI0PWe8ptfF-495" value="" style="rounded=0;whiteSpace=wrap;html=1;shadow=0;dashed=1;dashPattern=1 1;sketch=0;fillColor=#CCCCCC;gradientColor=#ffffff;gradientDirection=north;" parent="PMnQvKvV0bI0PWe8ptfF-502" vertex="1">
          <mxGeometry y="48" width="82.18666666666667" height="16" as="geometry" />
        </mxCell>
        <mxCell id="PMnQvKvV0bI0PWe8ptfF-491" value="" style="rounded=0;whiteSpace=wrap;html=1;shadow=0;dashed=1;dashPattern=1 1;sketch=0;strokeColor=#000000;" parent="PMnQvKvV0bI0PWe8ptfF-502" vertex="1">
          <mxGeometry width="82.18666666666667" height="16" as="geometry" />
        </mxCell>
        <mxCell id="PMnQvKvV0bI0PWe8ptfF-501" value="" style="rounded=0;whiteSpace=wrap;html=1;shadow=0;dashed=1;dashPattern=1 1;sketch=0;fillColor=#CCCCCC;gradientColor=#ffffff;gradientDirection=north;" parent="PMnQvKvV0bI0PWe8ptfF-502" vertex="1">
          <mxGeometry y="64" width="82.18666666666667" height="16" as="geometry" />
        </mxCell>
        <mxCell id="PMnQvKvV0bI0PWe8ptfF-503" value="" style="group;fillColor=#FFFFFF;" parent="PMnQvKvV0bI0PWe8ptfF-537" vertex="1" connectable="0">
          <mxGeometry x="82.18666666666667" width="99.79809523809524" height="80" as="geometry" />
        </mxCell>
        <mxCell id="PMnQvKvV0bI0PWe8ptfF-504" value="" style="rounded=0;whiteSpace=wrap;html=1;shadow=0;dashed=1;dashPattern=1 1;sketch=0;fillColor=#CCCCCC;gradientColor=#ffffff;gradientDirection=north;" parent="PMnQvKvV0bI0PWe8ptfF-503" vertex="1">
          <mxGeometry y="16" width="82.18666666666667" height="16" as="geometry" />
        </mxCell>
        <mxCell id="PMnQvKvV0bI0PWe8ptfF-505" value="" style="rounded=0;whiteSpace=wrap;html=1;shadow=0;dashed=1;dashPattern=1 1;sketch=0;fillColor=#CCCCCC;gradientColor=#ffffff;gradientDirection=north;" parent="PMnQvKvV0bI0PWe8ptfF-503" vertex="1">
          <mxGeometry y="32" width="82.18666666666667" height="16" as="geometry" />
        </mxCell>
        <mxCell id="PMnQvKvV0bI0PWe8ptfF-506" value="" style="rounded=0;whiteSpace=wrap;html=1;shadow=0;dashed=1;dashPattern=1 1;sketch=0;fillColor=#CCCCCC;gradientColor=#ffffff;gradientDirection=north;" parent="PMnQvKvV0bI0PWe8ptfF-503" vertex="1">
          <mxGeometry y="48" width="82.18666666666667" height="16" as="geometry" />
        </mxCell>
        <mxCell id="PMnQvKvV0bI0PWe8ptfF-507" value="" style="rounded=0;whiteSpace=wrap;html=1;shadow=0;dashed=1;dashPattern=1 1;sketch=0;fillColor=#CCCCCC;gradientColor=#ffffff;gradientDirection=north;" parent="PMnQvKvV0bI0PWe8ptfF-503" vertex="1">
          <mxGeometry width="82.18666666666667" height="16" as="geometry" />
        </mxCell>
        <mxCell id="PMnQvKvV0bI0PWe8ptfF-508" value="" style="rounded=0;whiteSpace=wrap;html=1;shadow=0;dashed=1;dashPattern=1 1;sketch=0;fillColor=#CCCCCC;gradientColor=#ffffff;gradientDirection=north;" parent="PMnQvKvV0bI0PWe8ptfF-503" vertex="1">
          <mxGeometry y="64" width="82.18666666666667" height="16" as="geometry" />
        </mxCell>
        <mxCell id="PMnQvKvV0bI0PWe8ptfF-546" value="" style="group;rotation=90;" parent="PMnQvKvV0bI0PWe8ptfF-503" vertex="1" connectable="0">
          <mxGeometry x="-186.52851047619046" y="10.504000000000003" width="126.5087619047619" height="55.20000000000001" as="geometry" />
        </mxCell>
        <mxCell id="PMnQvKvV0bI0PWe8ptfF-511" value="" style="group" parent="PMnQvKvV0bI0PWe8ptfF-537" vertex="1" connectable="0">
          <mxGeometry x="164.37333333333333" width="82.18666666666667" height="80" as="geometry" />
        </mxCell>
        <mxCell id="PMnQvKvV0bI0PWe8ptfF-512" value="" style="rounded=0;whiteSpace=wrap;html=1;shadow=0;dashed=1;dashPattern=1 1;sketch=0;strokeColor=#000000;" parent="PMnQvKvV0bI0PWe8ptfF-511" vertex="1">
          <mxGeometry y="16" width="82.18666666666667" height="16" as="geometry" />
        </mxCell>
        <mxCell id="PMnQvKvV0bI0PWe8ptfF-513" value="" style="rounded=0;whiteSpace=wrap;html=1;shadow=0;dashed=1;dashPattern=1 1;sketch=0;strokeColor=#000000;" parent="PMnQvKvV0bI0PWe8ptfF-511" vertex="1">
          <mxGeometry y="32" width="82.18666666666667" height="16" as="geometry" />
        </mxCell>
        <mxCell id="PMnQvKvV0bI0PWe8ptfF-514" value="" style="rounded=0;whiteSpace=wrap;html=1;shadow=0;dashed=1;dashPattern=1 1;sketch=0;gradientColor=#ffffff;fillColor=#CCCCCC;gradientDirection=north;" parent="PMnQvKvV0bI0PWe8ptfF-511" vertex="1">
          <mxGeometry y="48" width="82.18666666666667" height="16" as="geometry" />
        </mxCell>
        <mxCell id="PMnQvKvV0bI0PWe8ptfF-515" value="" style="rounded=0;whiteSpace=wrap;html=1;shadow=0;dashed=1;dashPattern=1 1;sketch=0;strokeColor=#000000;" parent="PMnQvKvV0bI0PWe8ptfF-511" vertex="1">
          <mxGeometry width="82.18666666666667" height="16" as="geometry" />
        </mxCell>
        <mxCell id="PMnQvKvV0bI0PWe8ptfF-516" value="" style="rounded=0;whiteSpace=wrap;html=1;shadow=0;dashed=1;dashPattern=1 1;sketch=0;gradientColor=#ffffff;fillColor=#CCCCCC;gradientDirection=north;" parent="PMnQvKvV0bI0PWe8ptfF-511" vertex="1">
          <mxGeometry y="64" width="82.18666666666667" height="16" as="geometry" />
        </mxCell>
        <mxCell id="PMnQvKvV0bI0PWe8ptfF-517" value="" style="group" parent="PMnQvKvV0bI0PWe8ptfF-537" vertex="1" connectable="0">
          <mxGeometry x="246.55999999999997" width="82.18666666666667" height="80" as="geometry" />
        </mxCell>
        <mxCell id="PMnQvKvV0bI0PWe8ptfF-518" value="" style="rounded=0;whiteSpace=wrap;html=1;shadow=0;dashed=1;dashPattern=1 1;sketch=0;fillColor=#CCCCCC;gradientColor=#ffffff;gradientDirection=north;" parent="PMnQvKvV0bI0PWe8ptfF-517" vertex="1">
          <mxGeometry y="16" width="82.18666666666667" height="16" as="geometry" />
        </mxCell>
        <mxCell id="PMnQvKvV0bI0PWe8ptfF-519" value="" style="rounded=0;whiteSpace=wrap;html=1;shadow=0;dashed=1;dashPattern=1 1;sketch=0;fillColor=#CCCCCC;gradientColor=#ffffff;gradientDirection=north;" parent="PMnQvKvV0bI0PWe8ptfF-517" vertex="1">
          <mxGeometry y="32" width="82.18666666666667" height="16" as="geometry" />
        </mxCell>
        <mxCell id="PMnQvKvV0bI0PWe8ptfF-520" value="" style="rounded=0;whiteSpace=wrap;html=1;shadow=0;dashed=1;dashPattern=1 1;sketch=0;fillColor=#CCCCCC;gradientColor=#ffffff;gradientDirection=north;" parent="PMnQvKvV0bI0PWe8ptfF-517" vertex="1">
          <mxGeometry y="48" width="82.18666666666667" height="16" as="geometry" />
        </mxCell>
        <mxCell id="PMnQvKvV0bI0PWe8ptfF-521" value="" style="rounded=0;whiteSpace=wrap;html=1;shadow=0;dashed=1;dashPattern=1 1;sketch=0;strokeColor=#000000;" parent="PMnQvKvV0bI0PWe8ptfF-517" vertex="1">
          <mxGeometry width="82.18666666666667" height="16" as="geometry" />
        </mxCell>
        <mxCell id="PMnQvKvV0bI0PWe8ptfF-522" value="" style="rounded=0;whiteSpace=wrap;html=1;shadow=0;dashed=1;dashPattern=1 1;sketch=0;fillColor=#CCCCCC;gradientColor=#ffffff;gradientDirection=north;" parent="PMnQvKvV0bI0PWe8ptfF-517" vertex="1">
          <mxGeometry y="64" width="82.18666666666667" height="16" as="geometry" />
        </mxCell>
        <mxCell id="PMnQvKvV0bI0PWe8ptfF-523" value="" style="group" parent="PMnQvKvV0bI0PWe8ptfF-537" vertex="1" connectable="0">
          <mxGeometry x="328.74666666666667" width="82.18666666666667" height="80" as="geometry" />
        </mxCell>
        <mxCell id="PMnQvKvV0bI0PWe8ptfF-524" value="" style="rounded=0;whiteSpace=wrap;html=1;shadow=0;dashed=1;dashPattern=1 1;sketch=0;fillColor=#CCCCCC;gradientColor=#ffffff;gradientDirection=north;" parent="PMnQvKvV0bI0PWe8ptfF-523" vertex="1">
          <mxGeometry y="16" width="82.18666666666667" height="16" as="geometry" />
        </mxCell>
        <mxCell id="PMnQvKvV0bI0PWe8ptfF-525" value="" style="rounded=0;whiteSpace=wrap;html=1;shadow=0;dashed=1;dashPattern=1 1;sketch=0;fillColor=#CCCCCC;gradientColor=#ffffff;gradientDirection=north;" parent="PMnQvKvV0bI0PWe8ptfF-523" vertex="1">
          <mxGeometry y="32" width="82.18666666666667" height="16" as="geometry" />
        </mxCell>
        <mxCell id="PMnQvKvV0bI0PWe8ptfF-526" value="" style="rounded=0;whiteSpace=wrap;html=1;shadow=0;dashed=1;dashPattern=1 1;sketch=0;fillColor=#CCCCCC;gradientColor=#ffffff;gradientDirection=north;" parent="PMnQvKvV0bI0PWe8ptfF-523" vertex="1">
          <mxGeometry y="48" width="82.18666666666667" height="16" as="geometry" />
        </mxCell>
        <mxCell id="PMnQvKvV0bI0PWe8ptfF-527" value="" style="rounded=0;whiteSpace=wrap;html=1;shadow=0;dashed=1;dashPattern=1 1;sketch=0;strokeColor=#000000;" parent="PMnQvKvV0bI0PWe8ptfF-523" vertex="1">
          <mxGeometry width="82.18666666666667" height="16" as="geometry" />
        </mxCell>
        <mxCell id="PMnQvKvV0bI0PWe8ptfF-528" value="" style="rounded=0;whiteSpace=wrap;html=1;shadow=0;dashed=1;dashPattern=1 1;sketch=0;fillColor=#CCCCCC;gradientColor=#ffffff;gradientDirection=north;" parent="PMnQvKvV0bI0PWe8ptfF-523" vertex="1">
          <mxGeometry y="64" width="82.18666666666667" height="16" as="geometry" />
        </mxCell>
        <mxCell id="PMnQvKvV0bI0PWe8ptfF-529" value="" style="group" parent="PMnQvKvV0bI0PWe8ptfF-537" vertex="1" connectable="0">
          <mxGeometry x="410.9333333333333" width="82.18666666666667" height="80" as="geometry" />
        </mxCell>
        <mxCell id="PMnQvKvV0bI0PWe8ptfF-530" value="" style="rounded=0;whiteSpace=wrap;html=1;shadow=0;dashed=1;dashPattern=1 1;sketch=0;fillColor=#CCCCCC;gradientColor=#ffffff;gradientDirection=north;" parent="PMnQvKvV0bI0PWe8ptfF-529" vertex="1">
          <mxGeometry y="16" width="82.18666666666667" height="16" as="geometry" />
        </mxCell>
        <mxCell id="PMnQvKvV0bI0PWe8ptfF-531" value="" style="rounded=0;whiteSpace=wrap;html=1;shadow=0;dashed=1;dashPattern=1 1;sketch=0;fillColor=#CCCCCC;gradientColor=#ffffff;gradientDirection=north;" parent="PMnQvKvV0bI0PWe8ptfF-529" vertex="1">
          <mxGeometry y="32" width="82.18666666666667" height="16" as="geometry" />
        </mxCell>
        <mxCell id="PMnQvKvV0bI0PWe8ptfF-532" value="" style="rounded=0;whiteSpace=wrap;html=1;shadow=0;dashed=1;dashPattern=1 1;sketch=0;fillColor=#CCCCCC;gradientColor=#ffffff;gradientDirection=north;" parent="PMnQvKvV0bI0PWe8ptfF-529" vertex="1">
          <mxGeometry y="48" width="82.18666666666667" height="16" as="geometry" />
        </mxCell>
        <mxCell id="PMnQvKvV0bI0PWe8ptfF-533" value="" style="rounded=0;whiteSpace=wrap;html=1;shadow=0;dashed=1;dashPattern=1 1;sketch=0;strokeColor=#000000;" parent="PMnQvKvV0bI0PWe8ptfF-529" vertex="1">
          <mxGeometry width="82.18666666666667" height="16" as="geometry" />
        </mxCell>
        <mxCell id="PMnQvKvV0bI0PWe8ptfF-534" value="" style="rounded=0;whiteSpace=wrap;html=1;shadow=0;dashed=1;dashPattern=1 1;sketch=0;fillColor=#CCCCCC;gradientColor=#ffffff;gradientDirection=north;" parent="PMnQvKvV0bI0PWe8ptfF-529" vertex="1">
          <mxGeometry y="64" width="82.18666666666667" height="16" as="geometry" />
        </mxCell>
        <mxCell id="PMnQvKvV0bI0PWe8ptfF-651" value="" style="group" parent="PMnQvKvV0bI0PWe8ptfF-652" vertex="1" connectable="0">
          <mxGeometry width="493.1166666666668" height="16" as="geometry" />
        </mxCell>
        <mxCell id="PMnQvKvV0bI0PWe8ptfF-645" value="28/09/20" style="rounded=0;whiteSpace=wrap;html=1;shadow=0;dashed=1;dashPattern=1 1;sketch=0;strokeColor=none;" parent="PMnQvKvV0bI0PWe8ptfF-651" vertex="1">
          <mxGeometry width="82.18666666666667" height="16" as="geometry" />
        </mxCell>
        <mxCell id="PMnQvKvV0bI0PWe8ptfF-646" value="29/09/20" style="rounded=0;whiteSpace=wrap;html=1;shadow=0;dashed=1;dashPattern=1 1;sketch=0;strokeColor=none;" parent="PMnQvKvV0bI0PWe8ptfF-651" vertex="1">
          <mxGeometry x="82.19000000000005" width="82.18666666666667" height="16" as="geometry" />
        </mxCell>
        <mxCell id="PMnQvKvV0bI0PWe8ptfF-647" value="10/09/20" style="rounded=0;whiteSpace=wrap;html=1;shadow=0;dashed=1;dashPattern=1 1;sketch=0;strokeColor=none;" parent="PMnQvKvV0bI0PWe8ptfF-651" vertex="1">
          <mxGeometry x="164.3800000000001" width="82.18666666666667" height="16" as="geometry" />
        </mxCell>
        <mxCell id="PMnQvKvV0bI0PWe8ptfF-648" value="01/10/20" style="rounded=0;whiteSpace=wrap;html=1;shadow=0;dashed=1;dashPattern=1 1;sketch=0;strokeColor=none;" parent="PMnQvKvV0bI0PWe8ptfF-651" vertex="1">
          <mxGeometry x="246.56999999999994" width="82.18666666666667" height="16" as="geometry" />
        </mxCell>
        <mxCell id="PMnQvKvV0bI0PWe8ptfF-649" value="02/10//20" style="rounded=0;whiteSpace=wrap;html=1;shadow=0;dashed=1;dashPattern=1 1;sketch=0;strokeColor=none;" parent="PMnQvKvV0bI0PWe8ptfF-651" vertex="1">
          <mxGeometry x="328.76" width="82.18666666666667" height="16" as="geometry" />
        </mxCell>
        <mxCell id="PMnQvKvV0bI0PWe8ptfF-650" value="03/10/20" style="rounded=0;whiteSpace=wrap;html=1;shadow=0;dashed=1;dashPattern=1 1;sketch=0;strokeColor=none;" parent="PMnQvKvV0bI0PWe8ptfF-651" vertex="1">
          <mxGeometry x="410.93000000000006" width="82.18666666666667" height="16" as="geometry" />
        </mxCell>
        <mxCell id="PMnQvKvV0bI0PWe8ptfF-661" value="" style="verticalLabelPosition=bottom;verticalAlign=top;html=1;shape=mxgraph.basic.star;shadow=0;dashed=0;strokeWidth=1;fillColor=none;fontSize=17;" parent="PMnQvKvV0bI0PWe8ptfF-832" vertex="1">
          <mxGeometry x="13.000000000000114" y="82.15999999999985" width="10.41" height="11.67" as="geometry" />
        </mxCell>
        <mxCell id="PMnQvKvV0bI0PWe8ptfF-678" value="" style="group" parent="PMnQvKvV0bI0PWe8ptfF-832" vertex="1" connectable="0">
          <mxGeometry x="11.590000000000146" y="19" width="66.41000000000008" height="11.670000000000073" as="geometry" />
        </mxCell>
        <mxCell id="PMnQvKvV0bI0PWe8ptfF-673" value="" style="verticalLabelPosition=bottom;verticalAlign=top;html=1;shape=mxgraph.basic.star;shadow=0;dashed=0;strokeWidth=1;fillColor=none;fontSize=17;" parent="PMnQvKvV0bI0PWe8ptfF-678" vertex="1">
          <mxGeometry x="42" width="10.41" height="11.67" as="geometry" />
        </mxCell>
        <mxCell id="PMnQvKvV0bI0PWe8ptfF-674" value="" style="verticalLabelPosition=bottom;verticalAlign=top;html=1;shape=mxgraph.basic.star;shadow=0;dashed=0;strokeWidth=1;fillColor=none;fontSize=17;" parent="PMnQvKvV0bI0PWe8ptfF-678" vertex="1">
          <mxGeometry x="56" width="10.41" height="11.67" as="geometry" />
        </mxCell>
        <mxCell id="PMnQvKvV0bI0PWe8ptfF-675" value="" style="verticalLabelPosition=bottom;verticalAlign=top;html=1;shape=mxgraph.basic.star;shadow=0;dashed=0;strokeWidth=1;fillColor=none;fontSize=17;" parent="PMnQvKvV0bI0PWe8ptfF-678" vertex="1">
          <mxGeometry x="28" width="10.41" height="11.67" as="geometry" />
        </mxCell>
        <mxCell id="PMnQvKvV0bI0PWe8ptfF-676" value="" style="verticalLabelPosition=bottom;verticalAlign=top;html=1;shape=mxgraph.basic.star;shadow=0;dashed=0;strokeWidth=1;fillColor=none;fontSize=17;" parent="PMnQvKvV0bI0PWe8ptfF-678" vertex="1">
          <mxGeometry x="14" width="10.41" height="11.67" as="geometry" />
        </mxCell>
        <mxCell id="PMnQvKvV0bI0PWe8ptfF-677" value="" style="verticalLabelPosition=bottom;verticalAlign=top;html=1;shape=mxgraph.basic.star;shadow=0;dashed=0;strokeWidth=1;fillColor=none;fontSize=17;" parent="PMnQvKvV0bI0PWe8ptfF-678" vertex="1">
          <mxGeometry width="10.41" height="11.67" as="geometry" />
        </mxCell>
        <mxCell id="PMnQvKvV0bI0PWe8ptfF-683" value="" style="group" parent="PMnQvKvV0bI0PWe8ptfF-832" vertex="1" connectable="0">
          <mxGeometry x="12.590000000000032" y="66" width="24.410000000000196" height="11.670000000000073" as="geometry" />
        </mxCell>
        <mxCell id="PMnQvKvV0bI0PWe8ptfF-640" value="" style="verticalLabelPosition=bottom;verticalAlign=top;html=1;shape=mxgraph.basic.star;shadow=0;dashed=0;strokeWidth=1;fillColor=none;fontSize=17;" parent="PMnQvKvV0bI0PWe8ptfF-683" vertex="1">
          <mxGeometry width="10.41" height="11.67" as="geometry" />
        </mxCell>
        <mxCell id="PMnQvKvV0bI0PWe8ptfF-662" value="" style="verticalLabelPosition=bottom;verticalAlign=top;html=1;shape=mxgraph.basic.star;shadow=0;dashed=0;strokeWidth=1;fillColor=none;fontSize=17;" parent="PMnQvKvV0bI0PWe8ptfF-683" vertex="1">
          <mxGeometry x="14.000000000000114" width="10.41" height="11.67" as="geometry" />
        </mxCell>
        <mxCell id="PMnQvKvV0bI0PWe8ptfF-828" value="" style="verticalLabelPosition=bottom;verticalAlign=top;html=1;shape=mxgraph.basic.star;shadow=0;dashed=0;strokeWidth=1;fillColor=none;fontSize=17;" parent="PMnQvKvV0bI0PWe8ptfF-832" vertex="1">
          <mxGeometry x="11.590000000000146" y="110.67000000000007" width="10.41" height="11.67" as="geometry" />
        </mxCell>
        <mxCell id="AhIjuTALWqSphXnP8Tbr-1" value="Tree Container" style="swimlane;html=1;startSize=20;horizontal=1;containerType=tree;" vertex="1" parent="1">
          <mxGeometry x="925" y="2390" width="630" height="500" as="geometry" />
        </mxCell>
        <mxCell id="AhIjuTALWqSphXnP8Tbr-2" value="" style="edgeStyle=elbowEdgeStyle;elbow=vertical;startArrow=none;endArrow=none;rounded=0;" edge="1" parent="AhIjuTALWqSphXnP8Tbr-1" source="AhIjuTALWqSphXnP8Tbr-3" target="AhIjuTALWqSphXnP8Tbr-4">
          <mxGeometry relative="1" as="geometry" />
        </mxCell>
        <mxCell id="AhIjuTALWqSphXnP8Tbr-3" value="App" style="whiteSpace=wrap;html=1;treeFolding=1;treeMoving=1;newEdgeStyle={&quot;edgeStyle&quot;:&quot;elbowEdgeStyle&quot;,&quot;startArrow&quot;:&quot;none&quot;,&quot;endArrow&quot;:&quot;none&quot;};" vertex="1" parent="AhIjuTALWqSphXnP8Tbr-1">
          <mxGeometry x="100" y="40" width="120" height="40" as="geometry" />
        </mxCell>
        <mxCell id="AhIjuTALWqSphXnP8Tbr-4" value="NavBar" style="whiteSpace=wrap;html=1;treeFolding=1;treeMoving=1;newEdgeStyle={&quot;edgeStyle&quot;:&quot;elbowEdgeStyle&quot;,&quot;startArrow&quot;:&quot;none&quot;,&quot;endArrow&quot;:&quot;none&quot;};" vertex="1" parent="AhIjuTALWqSphXnP8Tbr-1">
          <mxGeometry x="10" y="140" width="120" height="40" as="geometry" />
        </mxCell>
        <mxCell id="AhIjuTALWqSphXnP8Tbr-5" value="" style="edgeStyle=elbowEdgeStyle;elbow=vertical;startArrow=none;endArrow=none;rounded=0;" edge="1" target="AhIjuTALWqSphXnP8Tbr-6" source="AhIjuTALWqSphXnP8Tbr-3" parent="AhIjuTALWqSphXnP8Tbr-1">
          <mxGeometry relative="1" as="geometry">
            <mxPoint x="1096" y="400" as="sourcePoint" />
          </mxGeometry>
        </mxCell>
        <mxCell id="AhIjuTALWqSphXnP8Tbr-6" value="Component" style="whiteSpace=wrap;html=1;treeFolding=1;treeMoving=1;newEdgeStyle={&quot;edgeStyle&quot;:&quot;elbowEdgeStyle&quot;,&quot;startArrow&quot;:&quot;none&quot;,&quot;endArrow&quot;:&quot;none&quot;};" vertex="1" parent="AhIjuTALWqSphXnP8Tbr-1">
          <mxGeometry x="320" y="140" width="120" height="40" as="geometry" />
        </mxCell>
        <mxCell id="AhIjuTALWqSphXnP8Tbr-22" value="" style="edgeStyle=elbowEdgeStyle;elbow=vertical;startArrow=none;endArrow=none;rounded=0;" edge="1" target="AhIjuTALWqSphXnP8Tbr-23" source="AhIjuTALWqSphXnP8Tbr-6" parent="AhIjuTALWqSphXnP8Tbr-1">
          <mxGeometry relative="1" as="geometry">
            <mxPoint x="1110" y="2549.9999999999995" as="sourcePoint" />
          </mxGeometry>
        </mxCell>
        <mxCell id="AhIjuTALWqSphXnP8Tbr-23" value="Quiz" style="whiteSpace=wrap;html=1;treeFolding=1;treeMoving=1;newEdgeStyle={&quot;edgeStyle&quot;:&quot;elbowEdgeStyle&quot;,&quot;startArrow&quot;:&quot;none&quot;,&quot;endArrow&quot;:&quot;none&quot;};" vertex="1" parent="AhIjuTALWqSphXnP8Tbr-1">
          <mxGeometry x="190" y="220" width="120" height="40" as="geometry" />
        </mxCell>
        <mxCell id="AhIjuTALWqSphXnP8Tbr-24" value="" style="edgeStyle=elbowEdgeStyle;elbow=vertical;startArrow=none;endArrow=none;rounded=0;" edge="1" target="AhIjuTALWqSphXnP8Tbr-25" source="AhIjuTALWqSphXnP8Tbr-6" parent="AhIjuTALWqSphXnP8Tbr-1">
          <mxGeometry relative="1" as="geometry">
            <mxPoint x="1200" y="2649.9999999999995" as="sourcePoint" />
          </mxGeometry>
        </mxCell>
        <mxCell id="AhIjuTALWqSphXnP8Tbr-25" value="Day" style="whiteSpace=wrap;html=1;treeFolding=1;treeMoving=1;newEdgeStyle={&quot;edgeStyle&quot;:&quot;elbowEdgeStyle&quot;,&quot;startArrow&quot;:&quot;none&quot;,&quot;endArrow&quot;:&quot;none&quot;};" vertex="1" parent="AhIjuTALWqSphXnP8Tbr-1">
          <mxGeometry x="320" y="220" width="120" height="40" as="geometry" />
        </mxCell>
        <mxCell id="AhIjuTALWqSphXnP8Tbr-26" value="" style="edgeStyle=elbowEdgeStyle;elbow=vertical;startArrow=none;endArrow=none;rounded=0;" edge="1" target="AhIjuTALWqSphXnP8Tbr-27" source="AhIjuTALWqSphXnP8Tbr-6" parent="AhIjuTALWqSphXnP8Tbr-1">
          <mxGeometry relative="1" as="geometry">
            <mxPoint x="1200" y="2649.9999999999995" as="sourcePoint" />
          </mxGeometry>
        </mxCell>
        <mxCell id="AhIjuTALWqSphXnP8Tbr-27" value="AllData" style="whiteSpace=wrap;html=1;treeFolding=1;treeMoving=1;newEdgeStyle={&quot;edgeStyle&quot;:&quot;elbowEdgeStyle&quot;,&quot;startArrow&quot;:&quot;none&quot;,&quot;endArrow&quot;:&quot;none&quot;};" vertex="1" parent="AhIjuTALWqSphXnP8Tbr-1">
          <mxGeometry x="450" y="220" width="120" height="40" as="geometry" />
        </mxCell>
      </root>
    </mxGraphModel>
  </diagram>
</mxfile>
